<?xml version="1.0" encoding="utf-8"?>
<!-- Generator: Adobe Illustrator 17.1.0, SVG Export Plug-In . SVG Version: 6.00 Build 0)  -->
<!DOCTYPE svg PUBLIC "-//W3C//DTD SVG 1.1//EN" "http://www.w3.org/Graphics/SVG/1.1/DTD/svg11.dtd">
<svg version="1.1" id="Layer_1" xmlns="http://www.w3.org/2000/svg" xmlns:xlink="http://www.w3.org/1999/xlink" x="0px" y="0px"
	 viewBox="0 0 148.4 120.3" enable-background="new 0 0 148.4 120.3" xml:space="preserve">
<g>
	<path fill-rule="evenodd" clip-rule="evenodd" fill="#010101" d="M29.2,113.6c22.7-10.5,45.2-19.9,71-16.7
		c8.7,1.1,35.7,2,29.8-12.2c-3.7-9.3-16.4-10.2-21.6-11.2c-6.9-1.3-0.8-5.7,2-7.4c4-2.5,9.3-4.8,14.2-7.5
		C140.8,49.7,149,34.3,141,20C131.6,3.1,116.5,3.3,99.7,8.9c-15.1,5-31.3,12.6-47.2,20.4C36.1,37.2,20,45.5,5.1,51.8
		C13.1,72.4,21.1,93,29.2,113.6z"/>
	<g>
		<g>
			<path fill-rule="evenodd" clip-rule="evenodd" fill="#FFFFFF" d="M46.2,106.1l0.2-0.4l0.4,0.2C46.6,105.9,46.4,106,46.2,106.1
				L46.2,106.1z M22.7,96.6l2.3,1l0.5-1.2l-2.3-1L22.7,96.6L22.7,96.6z M28.5,99.2l2.3,1l0.5-1.2L29,98L28.5,99.2L28.5,99.2z
				 M34.3,101.7l2.3,1l0.5-1.2l-2.3-1L34.3,101.7L34.3,101.7z M42.4,105.3l0.5-1.2l-2.3-1l-0.5,1.2L42.4,105.3z"/>
			<path fill-rule="evenodd" clip-rule="evenodd" fill="#FFFFFF" d="M14,74.8l0.2,0.1L14.1,75L14,74.8L14,74.8z M17.2,77.6l2.3,1
				l0.5-1.2l-2.3-1L17.2,77.6L17.2,77.6z M23,80.1l2.3,1l0.5-1.2l-2.3-1L23,80.1L23,80.1z M28.8,82.7l2.3,1l0.5-1.2l-2.3-1
				L28.8,82.7L28.8,82.7z M34.6,85.2l2.3,1l0.5-1.2l-2.3-1L34.6,85.2L34.6,85.2z M40.4,87.8l2.3,1l0.5-1.2l-2.3-1L40.4,87.8
				L40.4,87.8z M46.2,90.3l2.3,1l0.5-1.2l-2.3-1L46.2,90.3L46.2,90.3z M52,92.9l2.3,1l0.5-1.2l-2.3-1L52,92.9L52,92.9z M57.8,95.4
				l2.3,1l0.5-1.2l-2.3-1L57.8,95.4L57.8,95.4z M66,99l0.5-1.2l-2.3-1L63.7,98L66,99z"/>
			<path fill-rule="evenodd" clip-rule="evenodd" fill="#FFFFFF" d="M98.9,96.7l0.5-1.1l2.3,1l-0.2,0.4c-0.5,0-0.9-0.1-1.3-0.1
				C99.7,96.8,99.3,96.8,98.9,96.7L98.9,96.7z M6.3,55l0.1-0.2l2.3,1L8.2,57l-1.3-0.6L6.3,55L6.3,55z M11.7,58.5l2.3,1l0.5-1.2
				l-2.3-1L11.7,58.5L11.7,58.5z M17.5,61.1l2.3,1l0.5-1.2l-2.3-1L17.5,61.1L17.5,61.1z M23.3,63.6l2.3,1l0.5-1.2l-2.3-1L23.3,63.6
				L23.3,63.6z M29.1,66.2l2.3,1l0.5-1.2l-2.3-1L29.1,66.2L29.1,66.2z M34.9,68.7l2.3,1l0.5-1.2l-2.3-1L34.9,68.7L34.9,68.7z
				 M40.7,71.3l2.3,1l0.5-1.2l-2.3-1L40.7,71.3L40.7,71.3z M46.5,73.8l2.3,1l0.5-1.2l-2.3-1L46.5,73.8L46.5,73.8z M52.3,76.4l2.3,1
				l0.5-1.2l-2.3-1L52.3,76.4L52.3,76.4z M58.2,78.9l2.3,1l0.5-1.2l-2.3-1L58.2,78.9L58.2,78.9z M64,81.5l2.3,1l0.5-1.2l-2.3-1
				L64,81.5L64,81.5z M69.8,84l2.3,1l0.5-1.2l-2.3-1L69.8,84L69.8,84z M75.6,86.6l2.3,1l0.5-1.2l-2.3-1L75.6,86.6L75.6,86.6z
				 M81.4,89.1l2.3,1l0.5-1.2l-2.3-1L81.4,89.1L81.4,89.1z M87.2,91.7l2.3,1l0.5-1.2l-2.3-1L87.2,91.7L87.2,91.7z M95.3,95.3
				l0.5-1.2l-2.3-1L93,94.2L95.3,95.3z"/>
			<path fill-rule="evenodd" clip-rule="evenodd" fill="#FFFFFF" d="M128.5,93.2l-0.3-0.1l0.5-1.2l0.7,0.3
				C129.2,92.6,128.9,92.9,128.5,93.2L128.5,93.2z M20.4,44.9l-0.3,0.7l-0.6-0.3L20.4,44.9L20.4,44.9z M23.6,47.1l2.3,1l0.5-1.2
				l-2.3-1L23.6,47.1L23.6,47.1z M29.4,49.7l2.3,1l0.5-1.2l-2.3-1L29.4,49.7L29.4,49.7z M35.2,52.2l2.3,1l0.5-1.2l-2.3-1L35.2,52.2
				L35.2,52.2z M41,54.8l2.3,1l0.5-1.2l-2.3-1L41,54.8L41,54.8z M46.8,57.3l2.3,1l0.5-1.2l-2.3-1L46.8,57.3L46.8,57.3z M52.7,59.9
				l2.3,1l0.5-1.2l-2.3-1L52.7,59.9L52.7,59.9z M58.5,62.4l2.3,1l0.5-1.2l-2.3-1L58.5,62.4L58.5,62.4z M64.3,65l2.3,1l0.5-1.2
				l-2.3-1L64.3,65L64.3,65z M70.1,67.5l2.3,1l0.5-1.2l-2.3-1L70.1,67.5L70.1,67.5z M75.9,70.1l2.3,1l0.5-1.2l-2.3-1L75.9,70.1
				L75.9,70.1z M81.7,72.6l2.3,1l0.5-1.2l-2.3-1L81.7,72.6L81.7,72.6z M87.5,75.2l2.3,1l0.5-1.2L88,74L87.5,75.2L87.5,75.2z
				 M93.3,77.7l2.3,1l0.5-1.2l-2.3-1L93.3,77.7L93.3,77.7z M99.1,80.3l2.3,1l0.5-1.2l-2.3-1L99.1,80.3L99.1,80.3z M105,82.8l2.3,1
				l0.5-1.2l-2.3-1L105,82.8L105,82.8z M110.8,85.4l2.3,1l0.5-1.2l-2.3-1L110.8,85.4L110.8,85.4z M116.6,87.9l2.3,1l0.5-1.2l-2.3-1
				L116.6,87.9L116.6,87.9z M124.7,91.5l0.5-1.2l-2.3-1l-0.5,1.2L124.7,91.5z"/>
			<path fill-rule="evenodd" clip-rule="evenodd" fill="#FFFFFF" d="M38,36.4l-0.2,0.4l-0.3-0.1L38,36.4L38,36.4z M41.3,38.3l2.3,1
				l0.5-1.2l-2.3-1L41.3,38.3L41.3,38.3z M47.2,40.8l2.3,1l0.5-1.2l-2.3-1L47.2,40.8L47.2,40.8z M53,43.4l2.3,1l0.5-1.2l-2.3-1
				L53,43.4L53,43.4z M58.8,45.9l2.3,1l0.5-1.2l-2.3-1L58.8,45.9L58.8,45.9z M64.6,48.5l2.3,1l0.5-1.2l-2.3-1L64.6,48.5L64.6,48.5z
				 M70.4,51l2.3,1l0.5-1.2l-2.3-1L70.4,51L70.4,51z M76.2,53.6l2.3,1l0.5-1.2l-2.3-1L76.2,53.6L76.2,53.6z M82,56.1l2.3,1l0.5-1.2
				l-2.3-1L82,56.1L82,56.1z M87.8,58.7l2.3,1l0.5-1.2l-2.3-1L87.8,58.7L87.8,58.7z M93.6,61.2l2.3,1l0.5-1.2l-2.3-1L93.6,61.2
				L93.6,61.2z M99.5,63.8l2.3,1l0.5-1.2l-2.3-1L99.5,63.8L99.5,63.8z M107.6,67.4l0.5-1.2l-2.3-1l-0.5,1.2L107.6,67.4z"/>
			<path fill-rule="evenodd" clip-rule="evenodd" fill="#FFFFFF" d="M125,58.4l-1.9-0.9l0.5-1.2l2.3,1l-0.3,0.7
				C125.4,58.1,125.2,58.2,125,58.4L125,58.4z M55.7,27.7l-0.1,0.3l-0.2-0.1L55.7,27.7L55.7,27.7z M59.1,29.4l2.3,1l0.5-1.2l-2.3-1
				L59.1,29.4L59.1,29.4z M64.9,32l2.3,1l0.5-1.2l-2.3-1L64.9,32L64.9,32z M70.7,34.5l2.3,1l0.5-1.2l-2.3-1L70.7,34.5L70.7,34.5z
				 M76.5,37.1l2.3,1l0.5-1.2l-2.3-1L76.5,37.1L76.5,37.1z M82.3,39.6l2.3,1l0.5-1.2l-2.3-1L82.3,39.6L82.3,39.6z M88.1,42.2l2.3,1
				l0.5-1.2l-2.3-1L88.1,42.2L88.1,42.2z M94,44.7l2.3,1l0.5-1.2l-2.3-1L94,44.7L94,44.7z M99.8,47.3l2.3,1l0.5-1.2l-2.3-1
				L99.8,47.3L99.8,47.3z M105.6,49.8l2.3,1l0.5-1.2l-2.3-1L105.6,49.8L105.6,49.8z M111.4,52.4l2.3,1l0.5-1.2l-2.3-1L111.4,52.4
				L111.4,52.4z M119.5,56l0.5-1.2l-2.3-1l-0.5,1.2L119.5,56z"/>
			<path fill-rule="evenodd" clip-rule="evenodd" fill="#FFFFFF" d="M76.8,20.6l2.3,1l0.5-1.2l-2.3-1L76.8,20.6L76.8,20.6z
				 M82.6,23.1l2.3,1l0.5-1.2l-2.3-1L82.6,23.1L82.6,23.1z M88.5,25.7l2.3,1l0.5-1.2l-2.3-1L88.5,25.7L88.5,25.7z M94.3,28.2l2.3,1
				l0.5-1.2l-2.3-1L94.3,28.2L94.3,28.2z M100.1,30.8l2.3,1l0.5-1.2l-2.3-1L100.1,30.8L100.1,30.8z M105.9,33.4l2.3,1l0.5-1.2
				l-2.3-1L105.9,33.4L105.9,33.4z M111.7,35.9l2.3,1l0.5-1.2l-2.3-1L111.7,35.9L111.7,35.9z M117.5,38.5l2.3,1l0.5-1.2l-2.3-1
				L117.5,38.5L117.5,38.5z M123.3,41l2.3,1l0.5-1.2l-2.3-1L123.3,41L123.3,41z M129.1,43.6l2.3,1l0.5-1.2l-2.3-1L129.1,43.6
				L129.1,43.6z M137.3,47.1l0.5-1.2l-2.3-1l-0.5,1.2L137.3,47.1z"/>
			<path fill-rule="evenodd" clip-rule="evenodd" fill="#FFFFFF" d="M94.6,11.8l2.3,1l0.5-1.2l-2.3-1L94.6,11.8L94.6,11.8z
				 M100.4,14.3l2.3,1l0.5-1.2l-2.3-1L100.4,14.3L100.4,14.3z M106.2,16.9l2.3,1l0.5-1.2l-2.3-1L106.2,16.9L106.2,16.9z M112,19.4
				l2.3,1l0.5-1.2l-2.3-1L112,19.4L112,19.4z M117.8,22l2.3,1l0.5-1.2l-2.3-1L117.8,22L117.8,22z M123.6,24.5l2.3,1l0.5-1.2l-2.3-1
				L123.6,24.5L123.6,24.5z M129.4,27.1l2.3,1l0.5-1.2l-2.3-1L129.4,27.1L129.4,27.1z M135.3,29.6l2.3,1l0.5-1.2l-2.3-1L135.3,29.6
				L135.3,29.6z M143.4,33.2l0.5-1.2l-2.3-1l-0.5,1.2L143.4,33.2z"/>
			<path fill-rule="evenodd" clip-rule="evenodd" fill="#FFFFFF" d="M136.3,13.4l-0.8-0.3l0.1-0.3C135.9,13,136.1,13.2,136.3,13.4
				L136.3,13.4z M120.8,5.7l-0.4,0.8l-2.3-1C119.1,5.5,120,5.6,120.8,5.7L120.8,5.7z M123.9,8l2.3,1l0.5-1.2l-2.3-1L123.9,8L123.9,8
				z M132.1,11.6l0.5-1.2l-2.3-1l-0.5,1.2L132.1,11.6z"/>
		</g>
		<g>
			
				<rect x="6.8" y="52.6" transform="matrix(-0.9156 -0.402 0.402 -0.9156 -7.3755 106.2564)" fill-rule="evenodd" clip-rule="evenodd" fill="#FFFFFF" width="1.3" height="2.5"/>
			<path fill-rule="evenodd" clip-rule="evenodd" fill="#FFFFFF" d="M14.7,76.5l0.2,0.1l-0.1,0.2L14.7,76.5L14.7,76.5z M15.2,72.6
				l1-2.3l1.2,0.5l-1,2.3L15.2,72.6L15.2,72.6z M17.8,66.7l1-2.3l1.2,0.5l-1,2.3L17.8,66.7L17.8,66.7z M20.3,60.9l1-2.3l1.2,0.5
				l-1,2.3L20.3,60.9L20.3,60.9z M22.9,55.1l1-2.3l1.2,0.5l-1,2.3L22.9,55.1L22.9,55.1z M25.4,49.3l1-2.3l1.2,0.5l-1,2.3L25.4,49.3
				L25.4,49.3z M29,41.2l1.2,0.5l-1,2.3L28,43.5L29,41.2z"/>
			<path fill-rule="evenodd" clip-rule="evenodd" fill="#FFFFFF" d="M50.9,30l0.8,0.4l-1,2.3l-1.2-0.5l0.9-1.9L50.9,30L50.9,30z
				 M21.9,95.1l0.6-1.3l1.2,0.5l-1,2.3l-0.2-0.1L21.9,95.1L21.9,95.1z M24.1,90.3l1-2.3l1.2,0.5l-1,2.3L24.1,90.3L24.1,90.3z
				 M26.6,84.5l1-2.3l1.2,0.5l-1,2.3L26.6,84.5L26.6,84.5z M29.2,78.7l1-2.3l1.2,0.5l-1,2.3L29.2,78.7L29.2,78.7z M31.7,72.9l1-2.3
				l1.2,0.5l-1,2.3L31.7,72.9L31.7,72.9z M34.3,67.1l1-2.3l1.2,0.5l-1,2.3L34.3,67.1L34.3,67.1z M36.8,61.2l1-2.3l1.2,0.5l-1,2.3
				L36.8,61.2L36.8,61.2z M39.4,55.4l1-2.3l1.2,0.5l-1,2.3L39.4,55.4L39.4,55.4z M41.9,49.6l1-2.3l1.2,0.5l-1,2.3L41.9,49.6
				L41.9,49.6z M44.5,43.8l1-2.3l1.2,0.5l-1,2.3L44.5,43.8L44.5,43.8z M48,35.7l1.2,0.5l-1,2.3L47,38L48,35.7z"/>
			<path fill-rule="evenodd" clip-rule="evenodd" fill="#FFFFFF" d="M30.8,112.8l0.6-1.3l1.2,0.5C32,112.3,31.4,112.6,30.8,112.8
				L30.8,112.8z M73.2,19.4l-0.9,2l-1.2-0.5l0.3-0.7C72,19.9,72.6,19.7,73.2,19.4L73.2,19.4z M32.9,108l1-2.3l1.2,0.5l-1,2.3
				L32.9,108L32.9,108z M35.5,102.2l1-2.3l1.2,0.5l-1,2.3L35.5,102.2L35.5,102.2z M38,96.4l1-2.3l1.2,0.5l-1,2.3L38,96.4L38,96.4z
				 M40.6,90.6l1-2.3l1.2,0.5l-1,2.3L40.6,90.6L40.6,90.6z M43.1,84.8l1-2.3l1.2,0.5l-1,2.3L43.1,84.8L43.1,84.8z M45.7,79l1-2.3
				l1.2,0.5l-1,2.3L45.7,79L45.7,79z M48.2,73.2l1-2.3l1.2,0.5l-1,2.3L48.2,73.2L48.2,73.2z M50.8,67.4l1-2.3l1.2,0.5l-1,2.3
				L50.8,67.4L50.8,67.4z M53.3,61.6l1-2.3l1.2,0.5l-1,2.3L53.3,61.6L53.3,61.6z M55.9,55.7l1-2.3l1.2,0.5l-1,2.3L55.9,55.7
				L55.9,55.7z M58.4,49.9l1-2.3l1.2,0.5l-1,2.3L58.4,49.9L58.4,49.9z M61,44.1l1-2.3l1.2,0.5l-1,2.3L61,44.1L61,44.1z M63.5,38.3
				l1-2.3l1.2,0.5l-1,2.3L63.5,38.3L63.5,38.3z M66.1,32.5l1-2.3l1.2,0.5l-1,2.3L66.1,32.5L66.1,32.5z M69.6,24.4l1.2,0.5l-1,2.3
				l-1.2-0.5L69.6,24.4z"/>
			<path fill-rule="evenodd" clip-rule="evenodd" fill="#FFFFFF" d="M51.9,102.5l1-2.3l1.2,0.5l-1,2.3L51.9,102.5L51.9,102.5z
				 M54.5,96.7l1-2.3l1.2,0.5l-1,2.3L54.5,96.7L54.5,96.7z M57.1,90.9l1-2.3l1.2,0.5l-1,2.3L57.1,90.9L57.1,90.9z M59.6,85.1l1-2.3
				l1.2,0.5l-1,2.3L59.6,85.1L59.6,85.1z M62.2,79.3l1-2.3l1.2,0.5l-1,2.3L62.2,79.3L62.2,79.3z M64.7,73.5l1-2.3l1.2,0.5l-1,2.3
				L64.7,73.5L64.7,73.5z M67.3,67.7l1-2.3l1.2,0.5l-1,2.3L67.3,67.7L67.3,67.7z M69.8,61.9l1-2.3l1.2,0.5l-1,2.3L69.8,61.9
				L69.8,61.9z M72.4,56.1l1-2.3l1.2,0.5l-1,2.3L72.4,56.1L72.4,56.1z M74.9,50.2l1-2.3l1.2,0.5l-1,2.3L74.9,50.2L74.9,50.2z
				 M77.5,44.4l1-2.3l1.2,0.5l-1,2.3L77.5,44.4L77.5,44.4z M80,38.6l1-2.3l1.2,0.5l-1,2.3L80,38.6L80,38.6z M82.6,32.8l1-2.3
				l1.2,0.5l-1,2.3L82.6,32.8L82.6,32.8z M85.1,27l1-2.3l1.2,0.5l-1,2.3L85.1,27L85.1,27z M87.7,21.2l1-2.3l1.2,0.5l-1,2.3
				L87.7,21.2L87.7,21.2z M91.2,13.1l1.2,0.5l-1,2.3l-1.2-0.5L91.2,13.1z"/>
			<path fill-rule="evenodd" clip-rule="evenodd" fill="#FFFFFF" d="M71,97l1-2.3l1.2,0.5l-1,2.3L71,97L71,97z M73.5,91.2l1-2.3
				l1.2,0.5l-1,2.3L73.5,91.2L73.5,91.2z M76.1,85.4l1-2.3l1.2,0.5l-1,2.3L76.1,85.4L76.1,85.4z M78.6,79.6l1-2.3l1.2,0.5l-1,2.3
				L78.6,79.6L78.6,79.6z M81.2,73.8l1-2.3l1.2,0.5l-1,2.3L81.2,73.8L81.2,73.8z M83.8,68l1-2.3l1.2,0.5l-1,2.3L83.8,68L83.8,68z
				 M86.3,62.2l1-2.3l1.2,0.5l-1,2.3L86.3,62.2L86.3,62.2z M88.9,56.4l1-2.3l1.2,0.5l-1,2.3L88.9,56.4L88.9,56.4z M91.4,50.6l1-2.3
				l1.2,0.5l-1,2.3L91.4,50.6L91.4,50.6z M94,44.7l1-2.3l1.2,0.5l-1,2.3L94,44.7L94,44.7z M96.5,38.9l1-2.3l1.2,0.5l-1,2.3
				L96.5,38.9L96.5,38.9z M99.1,33.1l1-2.3l1.2,0.5l-1,2.3L99.1,33.1L99.1,33.1z M101.6,27.3l1-2.3l1.2,0.5l-1,2.3L101.6,27.3
				L101.6,27.3z M104.2,21.5l1-2.3l1.2,0.5l-1,2.3L104.2,21.5L104.2,21.5z M106.7,15.7l1-2.3l1.2,0.5l-1,2.3L106.7,15.7L106.7,15.7z
				 M110.3,7.6l1.2,0.5l-1,2.3l-1.2-0.5L110.3,7.6z"/>
			<path fill-rule="evenodd" clip-rule="evenodd" fill="#FFFFFF" d="M88,96.3l0.6-1.3l1.2,0.5l-0.3,0.7C88.9,96.3,88.4,96.3,88,96.3
				L88,96.3z M90,91.5l1-2.3l1.2,0.5l-1,2.3L90,91.5L90,91.5z M92.6,85.7l1-2.3l1.2,0.5l-1,2.3L92.6,85.7L92.6,85.7z M95.1,79.9
				l1-2.3l1.2,0.5l-1,2.3L95.1,79.9L95.1,79.9z M97.7,74.1l1-2.3l1.2,0.5l-1,2.3L97.7,74.1L97.7,74.1z M100.2,68.3l1-2.3l1.2,0.5
				l-1,2.3L100.2,68.3L100.2,68.3z M102.8,62.5l1-2.3l1.2,0.5l-1,2.3L102.8,62.5L102.8,62.5z M105.3,56.7l1-2.3l1.2,0.5l-1,2.3
				L105.3,56.7L105.3,56.7z M107.9,50.9l1-2.3l1.2,0.5l-1,2.3L107.9,50.9L107.9,50.9z M110.5,45.1l1-2.3l1.2,0.5l-1,2.3L110.5,45.1
				L110.5,45.1z M113,39.2l1-2.3l1.2,0.5l-1,2.3L113,39.2L113,39.2z M115.6,33.4l1-2.3l1.2,0.5l-1,2.3L115.6,33.4L115.6,33.4z
				 M118.1,27.6l1-2.3l1.2,0.5l-1,2.3L118.1,27.6L118.1,27.6z M120.7,21.8l1-2.3l1.2,0.5l-1,2.3L120.7,21.8L120.7,21.8z M123.2,16
				l1-2.3l1.2,0.5l-1,2.3L123.2,16L123.2,16z M126.8,7.9l1.2,0.5l-1,2.3l-1.2-0.5L126.8,7.9z"/>
			<path fill-rule="evenodd" clip-rule="evenodd" fill="#FFFFFF" d="M104.2,97.2l0.8-1.9l1.2,0.5l-0.6,1.5
				C105.1,97.3,104.6,97.3,104.2,97.2L104.2,97.2z M115.4,74.7l-0.1,0.2l-1-0.4C114.7,74.6,115.1,74.7,115.4,74.7L115.4,74.7z
				 M120.1,60.9l0.2-0.4l0.3,0.1L120.1,60.9L120.1,60.9z M106.5,91.9l1-2.3l1.2,0.5l-1,2.3L106.5,91.9L106.5,91.9z M109.1,86l1-2.3
				l1.2,0.5l-1,2.3L109.1,86L109.1,86z M111.6,80.2l1-2.3l1.2,0.5l-1,2.3L111.6,80.2L111.6,80.2z M121.8,57l1-2.3l1.2,0.5l-1,2.3
				L121.8,57L121.8,57z M124.4,51.2l1-2.3l1.2,0.5l-1,2.3L124.4,51.2L124.4,51.2z M126.9,45.4l1-2.3l1.2,0.5l-1,2.3L126.9,45.4
				L126.9,45.4z M129.5,39.6l1-2.3l1.2,0.5l-1,2.3L129.5,39.6L129.5,39.6z M132.1,33.7l1-2.3l1.2,0.5l-1,2.3L132.1,33.7L132.1,33.7z
				 M134.6,27.9l1-2.3l1.2,0.5l-1,2.3L134.6,27.9L134.6,27.9z M138.2,19.8l1.2,0.5l-1,2.3l-1.2-0.5L138.2,19.8z"/>
			<path fill-rule="evenodd" clip-rule="evenodd" fill="#FFFFFF" d="M121.2,96.4l0.3-0.7l0.9,0.4C122,96.2,121.6,96.3,121.2,96.4
				L121.2,96.4z M123,92.2l1-2.3l1.2,0.5l-1,2.3L123,92.2L123,92.2z M126.6,84l1.2,0.5l-1,2.3l-1.2-0.5L126.6,84z"/>
		</g>
	</g>
</g>
</svg>
