<?xml version="1.0" encoding="utf-8"?>
<!-- Generator: Adobe Illustrator 17.1.0, SVG Export Plug-In . SVG Version: 6.00 Build 0)  -->
<!DOCTYPE svg PUBLIC "-//W3C//DTD SVG 1.1//EN" "http://www.w3.org/Graphics/SVG/1.1/DTD/svg11.dtd">
<svg version="1.1" id="Layer_1" xmlns="http://www.w3.org/2000/svg" xmlns:xlink="http://www.w3.org/1999/xlink" x="0px" y="0px"
	 viewBox="0 0 148.8 205.3" enable-background="new 0 0 148.8 205.3" xml:space="preserve">
<g>
	<g>
		<g>
			<path fill="#010101" d="M135.3,61.5h-8.2v-5.4c0-1.5-1.2-2.7-2.7-2.7H85c-1.5,0-2.7,1.2-2.7,2.7v5.4H67.2v-2.7h1.2
				c1.5,0,2.7-1.2,2.7-2.7V29.4H79c1.5,0,2.7-1.2,2.7-2.7c0-1.5-1.2-2.7-2.7-2.7h-7.9v-4.9c0-1.5-1.2-2.7-2.7-2.7H56.1V9.3
				c0-1.5-1.2-2.7-2.7-2.7H36.2c-1.5,0-2.7,1.2-2.7,2.7v7.1H21.2c-1.5,0-2.7,1.2-2.7,2.7V24h-7.9C9.2,24,8,25.2,8,26.7
				s1.2,2.7,2.7,2.7h7.9v26.8c0,1.5,1.2,2.7,2.7,2.7h1.2v2.7h-8.2c-1.5,0-2.7,1.2-2.7,2.7v115.1c0,1.5,1.2,2.7,2.7,2.7h5.3v12
				c0,1.5,1.2,2.7,2.7,2.7h10.6c1.5,0,2.7-1.2,2.7-2.7v-12H114v12c0,1.5,1.2,2.7,2.7,2.7h10.6c1.5,0,2.7-1.2,2.7-2.7v-12h5.3
				c1.5,0,2.7-1.2,2.7-2.7V64.2C138,62.7,136.8,61.5,135.3,61.5z M87.6,58.8h34.2v2.7H87.6V58.8z M38.8,12h12v4.5h-12V12z
				 M23.9,21.8h41.9v31.7H23.9V21.8z M61.9,58.8v2.7H27.7v-2.7H61.9z M30.2,191.3h-5.3v-9.4h5.3V191.3z M124.7,191.3h-5.3v-9.4h5.3
				V191.3z M132.7,176.5H16.9V66.8h115.8V176.5z"/>
			<path fill="#010101" d="M33.4,87.7h42.5v5.5h-43c-1.5,0-2.7,1.2-2.7,2.7v62.4c0,1.5,1.2,2.7,2.7,2.7h83.9c1.5,0,2.7-1.2,2.7-2.7
				V95.8c0-1.5-1.2-2.7-2.7-2.7H110v-5.5h6.1c1.8,0,3.6-0.7,4.9-2c1.3-1.3,2-3,2-4.9c0-3.8-3.1-6.9-6.9-6.9h-2
				c-1.5,0-2.7,1.2-2.7,2.7c0,1.5,1.2,2.7,2.7,2.7h2c0.9,0,1.6,0.7,1.6,1.6c0,0.4-0.2,0.8-0.5,1.1c-0.3,0.3-0.7,0.5-1.1,0.5H110
				v-2.1c0-1.5-1.2-2.7-2.7-2.7H78.5c-1.5,0-2.7,1.2-2.7,2.7v2.1H33.4c-0.9,0-1.6-0.7-1.6-1.6c0-0.4,0.2-0.8,0.5-1.1
				c0.3-0.3,0.7-0.5,1.1-0.5h2c1.5,0,2.7-1.2,2.7-2.7c0-1.5-1.2-2.7-2.7-2.7h-2c-1.8,0-3.6,0.7-4.9,2c-1.3,1.3-2,3-2,4.9
				C26.5,84.6,29.6,87.7,33.4,87.7z M81.2,82.9h23.5v32.5H81.2V82.9z M78.5,120.8h28.8c1.5,0,2.7-1.2,2.7-2.7V98.5h4v57.1H35.5V98.5
				h40.4v9.9H45.3c-1.5,0-2.7,1.2-2.7,2.7s1.2,2.7,2.7,2.7h30.6v4.4C75.9,119.6,77.1,120.8,78.5,120.8z"/>
		</g>
	</g>
</g>
</svg>
