<?xml version="1.0" encoding="utf-8"?>
<!-- Generator: Adobe Illustrator 17.1.0, SVG Export Plug-In . SVG Version: 6.00 Build 0)  -->
<!DOCTYPE svg PUBLIC "-//W3C//DTD SVG 1.1//EN" "http://www.w3.org/Graphics/SVG/1.1/DTD/svg11.dtd">
<svg version="1.1" id="Capa_1" xmlns="http://www.w3.org/2000/svg" xmlns:xlink="http://www.w3.org/1999/xlink" x="0px" y="0px"
	 viewBox="0 0 595.3 420.9" enable-background="new 0 0 595.3 420.9" xml:space="preserve">
<g>
	<path d="M136.2,340.6c-10.8,10.8-21.7,21.7-32.5,32.5c-15.5,15.5,8.6,39.6,24.1,24.1c10.8-10.8,21.7-21.7,32.5-32.5
		c35.1,29.7,80.4,47.7,129.8,47.7c49.4,0,94.7-18,129.8-47.6c10.9,10.9,21.9,21.9,32.8,32.8c15.5,15.5,39.6-8.6,24.1-24.1
		c-10.9-10.9-21.9-21.9-32.8-32.8c29.6-35.1,47.5-80.3,47.5-129.7c0-49.3-17.9-94.5-47.4-129.6c11-11,21.9-21.9,32.9-32.9
		c15.5-15.5-8.6-39.6-24.1-24.1c-11,11-21.9,21.9-32.9,32.9C384.9,27.6,339.6,9.6,290.1,9.6c-49.3,0-94.4,17.8-129.4,47.3
		C149.8,46,139,35.2,128.1,24.3C112.6,8.8,88.5,32.9,104,48.4c10.8,10.8,21.7,21.7,32.5,32.5c-29.8,35.1-47.8,80.5-47.8,130
		C88.7,260.3,106.7,305.5,136.2,340.6z M290.1,66.4c33.8,0,64.9,11.7,89.5,31.3c-10.3,10.3-20.6,20.6-31,31
		c-15.5,15.5,8.6,39.6,24.1,24.1c10.3-10.3,20.6-20.6,30.9-30.9c19.4,24.6,31,55.5,31,89.2c0,33.7-11.7,64.7-31.1,89.3
		c-10.3-10.3-20.6-20.6-31-31c-15.5-15.5-39.6,8.6-24.1,24.1c10.3,10.3,20.7,20.7,31,31c-24.6,19.5-55.7,31.2-89.4,31.2
		c-33.8,0-64.8-11.7-89.5-31.2c10.4-10.4,20.9-20.9,31.4-31.4c15.5-15.5-8.6-39.6-24.1-24.1c-10.4,10.4-20.9,20.9-31.3,31.3
		c-19.4-24.6-31.1-55.6-31.1-89.2c0-33.9,11.8-65,31.4-89.7c10.4,10.4,20.9,20.9,31.3,31.3c15.5,15.5,39.6-8.6,24.1-24.1
		c-10.4-10.4-20.8-20.8-31.3-31.3C225.7,78,256.5,66.4,290.1,66.4z"/>
</g>
</svg>
