<?xml version="1.0" encoding="iso-8859-1"?>
<!-- Generator: Adobe Illustrator 19.0.0, SVG Export Plug-In . SVG Version: 6.00 Build 0)  -->
<svg version="1.1" id="Layer_1" xmlns="http://www.w3.org/2000/svg" xmlns:xlink="http://www.w3.org/1999/xlink" x="0px" y="0px"
	 viewBox="0 0 512 512" style="enable-background:new 0 0 512 512;" xml:space="preserve">
<g>
	<g>
		<path d="M305.547,359.593h53.956v-54.031C332.618,311.472,311.419,332.694,305.547,359.593z"/>
	</g>
</g>
<g>
	<g>
		<path d="M389.92,152.406v53.837c26.82-5.896,47.979-27.031,53.911-53.837H389.92z"/>
	</g>
</g>
<g>
	<g>
		<path d="M305.591,152.406c5.932,26.807,27.092,47.942,53.911,53.837v-53.837H305.591z"/>
	</g>
</g>
<g>
	<g>
		<path d="M389.921,67.958v54.031h53.956C438.004,95.09,416.805,73.867,389.921,67.958z"/>
	</g>
</g>
<g>
	<g>
		<path d="M274.645,152.406h-37.471c-6.644,43.617-41.227,78.172-84.858,84.775v37.444c43.695,6.613,78.314,41.26,84.885,84.968
			h37.416c6.571-43.708,41.19-78.356,84.885-84.968v-37.444C315.872,230.578,281.289,196.023,274.645,152.406z"/>
	</g>
</g>
<g>
	<g>
		<path d="M389.921,305.562v54.031h53.956C438.004,332.694,416.805,311.472,389.921,305.562z"/>
	</g>
</g>
<g>
	<g>
		<path d="M152.316,152.406v53.837c26.82-5.896,47.98-27.031,53.912-53.837H152.316z"/>
	</g>
</g>
<g>
	<g>
		<path d="M152.316,305.562v54.031h53.957C200.4,332.695,179.202,311.472,152.316,305.562z"/>
	</g>
</g>
<g>
	<g>
		<path d="M305.547,121.989h53.956V67.958C332.618,73.868,311.419,95.091,305.547,121.989z"/>
	</g>
</g>
<g>
	<g>
		<path d="M121.899,67.958c-26.885,5.91-48.083,27.133-53.956,54.031h53.956C121.899,121.989,121.899,67.958,121.899,67.958z"/>
	</g>
</g>
<g>
	<g>
		<path d="M67.987,390.01c5.932,26.806,27.092,47.941,53.911,53.837V390.01H67.987z"/>
	</g>
</g>
<g>
	<g>
		<path d="M152.316,390.01v53.837c26.82-5.896,47.979-27.031,53.912-53.837H152.316z"/>
	</g>
</g>
<g>
	<g>
		<path d="M305.591,390.01c5.932,26.806,27.092,47.941,53.911,53.837V390.01H305.591z"/>
	</g>
</g>
<g>
	<g>
		<path d="M389.92,390.01v53.837c26.82-5.896,47.979-27.031,53.911-53.837H389.92z"/>
	</g>
</g>
<g>
	<g>
		<path d="M152.316,67.957v54.032h53.957C200.4,95.09,179.202,73.867,152.316,67.957z"/>
	</g>
</g>
<g>
	<g>
		<path d="M67.987,152.406c5.932,26.807,27.092,47.941,53.911,53.837v-53.837H67.987z"/>
	</g>
</g>
<g>
	<g>
		<path d="M121.899,305.562c-26.885,5.91-48.083,27.132-53.956,54.031h53.956C121.899,359.593,121.899,305.562,121.899,305.562z"/>
	</g>
</g>
<g>
	<g>
		<path d="M474.777,152.406c-6.644,43.617-41.227,78.172-84.858,84.775v37.444c43.695,6.613,78.314,41.26,84.885,84.968H512V152.406
			H474.777z"/>
	</g>
</g>
<g>
	<g>
		<path d="M152.316,0v37.021c43.695,6.613,78.315,41.26,84.885,84.969h37.416c6.571-43.708,41.19-78.357,84.885-84.969V0H152.316z"
			/>
	</g>
</g>
<g>
	<g>
		<path d="M474.777,390.01c-6.644,43.617-41.227,78.172-84.858,84.775V512h122.079V390.01H474.777z"/>
	</g>
</g>
<g>
	<g>
		<path d="M0,0v121.989h37.014c6.571-43.708,41.19-78.357,84.885-84.969V0H0z"/>
	</g>
</g>
<g>
	<g>
		<path d="M37.041,390.01H0v121.989h121.899v-37.214C78.268,468.182,43.685,433.627,37.041,390.01z"/>
	</g>
</g>
<g>
	<g>
		<path d="M274.645,390.01h-37.471c-6.644,43.617-41.227,78.172-84.858,84.775V512h207.187v-37.215
			C315.872,468.182,281.289,433.627,274.645,390.01z"/>
	</g>
</g>
<g>
	<g>
		<path d="M37.041,152.406H0v207.187h37.014c6.571-43.708,41.19-78.357,84.885-84.968v-37.444
			C78.268,230.578,43.685,196.023,37.041,152.406z"/>
	</g>
</g>
<g>
	<g>
		<path d="M389.92,0v37.021c43.695,6.613,78.314,41.26,84.885,84.969H512V0H389.92z"/>
	</g>
</g>
<g>
</g>
<g>
</g>
<g>
</g>
<g>
</g>
<g>
</g>
<g>
</g>
<g>
</g>
<g>
</g>
<g>
</g>
<g>
</g>
<g>
</g>
<g>
</g>
<g>
</g>
<g>
</g>
<g>
</g>
</svg>
