<?xml version="1.0" encoding="utf-8"?>
<!-- Generator: Adobe Illustrator 17.1.0, SVG Export Plug-In . SVG Version: 6.00 Build 0)  -->
<!DOCTYPE svg PUBLIC "-//W3C//DTD SVG 1.1//EN" "http://www.w3.org/Graphics/SVG/1.1/DTD/svg11.dtd">
<svg version="1.1" id="Layer_1" xmlns="http://www.w3.org/2000/svg" xmlns:xlink="http://www.w3.org/1999/xlink" x="0px" y="0px"
	 viewBox="0 0 595.3 420.9" enable-background="new 0 0 595.3 420.9" xml:space="preserve">
<g id="Guids">
	<g>
		<g>
			<path fill="#010101" d="M136.7,243.1c-2,0-3.8,1.6-3.8,3.8v5c0,2,1.6,3.8,3.8,3.8c2.2,0,3.8-1.6,3.8-3.8v-5
				C140.3,244.7,138.7,243.1,136.7,243.1z"/>
		</g>
	</g>
	<g>
		<g>
			<path fill="#010101" d="M180.4,243.1c-2,0-3.8,1.6-3.8,3.8v5c0,2,1.6,3.8,3.8,3.8c2,0,3.8-1.6,3.8-3.8v-5
				C184.1,244.7,182.6,243.1,180.4,243.1z"/>
		</g>
	</g>
	<g>
		<g>
			<path fill="#010101" d="M169.7,263.4c-1.4-1.4-3.8-1.4-5.2,0c-1.6,1.6-3.6,2.4-6,2.4c-2.4,0-4.4-0.8-6-2.4
				c-1.4-1.4-3.8-1.4-5.2,0c-1.4,1.4-1.4,3.8,0,5.2c3,3,6.9,4.6,11.1,4.6c4.2,0,8.1-1.6,11.1-4.6C171,267.1,171,264.7,169.7,263.4z"
				/>
		</g>
	</g>
	<g>
		<ellipse fill="#FFE7CC" cx="410.1" cy="240.9" rx="16.1" ry="16.3"/>
		<ellipse fill="#FFE7CC" cx="503" cy="240.9" rx="16.1" ry="16.3"/>
	</g>
	<path fill="#FFE7CC" d="M508.6,245.9c0,25.2-26,45.6-51,45.6h-2.2c-25,0-51-20.4-51-45.6v-31.2c0-25.2,20.2-45.6,45.4-45.6h13.3
		c25,0,45.4,20.4,45.4,45.6V245.9L508.6,245.9z"/>
	<path fill="#F7B238" d="M508.6,233.8v-19c0-25.2-20.2-45.6-45.4-45.6h-4.8v19c0,25.2,20.2,45.6,45.4,45.6H508.6L508.6,233.8z"/>
	<path opacity="0.1" fill="#010101" enable-background="new    " d="M419.9,245.9v-31.2c0-24.8,19.8-45,44.2-45.6c-0.4,0-0.6,0-1,0
		h-13.3c-25,0-45.4,20.4-45.4,45.6v31.2c0,25.2,26,45.6,51,45.6h2.2c2.2,0,4.4-0.2,6.5-0.4C441.5,288,419.9,268.9,419.9,245.9z"/>
	<path fill="#F7B238" d="M487.5,188.1v-11.9c-6.9-4.6-15.3-7.1-24.4-7.1h-13.3c-25,0-45.4,20.4-45.4,45.6v11.9
		c6.9,4.6,15.3,7.1,24.4,7.1h13.3C467.3,233.8,487.5,213.3,487.5,188.1z"/>
	<path fill="#E5E5E5" d="M524.2,152.8c0-11.5-9.3-21-20.8-21c-3,0-5.6,0.6-8.1,1.6c-2.4-8.9-10.5-15.7-20-15.7
		c-7.9,0-14.9,4.6-18.5,11.1c-3.6-6.7-10.5-11.1-18.5-11.1c-9.7,0-17.9,6.7-20.2,15.9c-2.6-1.2-5.6-2-8.5-2
		c-11.5,0-20.8,9.3-20.8,21c0,9.7,6.7,18.1,15.7,20.2v42.3h104v-41.9C517.7,170.9,524.2,162.7,524.2,152.8z"/>
	<rect x="404.6" y="202" fill="#EF4325" width="104" height="13.5"/>
	<path opacity="0.1" fill="#010101" enable-background="new    " d="M404.2,152.8c0-8.9,5.4-16.5,13.1-19.4c-2.4-1-5-1.4-7.7-1.4
		c-11.5,0-20.8,9.3-20.8,21c0,9.7,6.7,18.1,15.7,20.2v42.3h15.3v-42.3C410.9,170.9,404.2,162.7,404.2,152.8z"/>
	<rect x="404.6" y="202" opacity="0.1" fill="#010101" enable-background="new    " width="15.3" height="13.5"/>
	<path fill="#010101" d="M433.6,255.6c2,0,3.8-1.6,3.8-3.8v-5c0-2-1.6-3.8-3.8-3.8s-3.8,1.6-3.8,3.8v5
		C429.8,254,431.6,255.6,433.6,255.6z"/>
	<path fill="#010101" d="M477.2,255.6c2,0,3.8-1.6,3.8-3.8v-5c0-2-1.6-3.8-3.8-3.8s-3.8,1.6-3.8,3.8v5
		C473.6,254,475.2,255.6,477.2,255.6z"/>
	<path fill="#010101" d="M455.4,273.5L455.4,273.5c4.2,0,8.1-1.6,11.1-4.6c1.4-1.4,1.4-3.8,0-5.4c-1.4-1.4-3.8-1.4-5.2,0
		c-1.6,1.6-3.6,2.4-6,2.4s-4.4-0.8-6-2.4c-1.4-1.4-3.8-1.4-5.2,0c-1.4,1.4-1.4,3.8,0,5.4C447.3,271.9,451.2,273.5,455.4,273.5z"/>
	<path fill="#010101" d="M510,259.6c7.5-2.8,12.9-10.1,12.9-18.7c0-7.7-4.4-14.3-10.5-17.7V176c9.3-3.6,15.7-12.7,15.7-23
		c0-13.7-10.9-24.6-24.4-24.6c-2,0-4,0.2-6,0.8c-3.8-8.7-12.5-14.7-22.4-14.7c-7.1,0-13.9,3.2-18.5,8.3c-4.6-5.4-11.3-8.3-18.5-8.3
		c-9.9,0-18.7,6-22.4,14.9c-2-0.6-4.2-0.8-6.3-0.8c-13.5,0-24.4,11.1-24.4,24.6c0,10.3,6.3,19.4,15.7,23v7.3c0,2,1.6,3.8,3.8,3.8
		s3.8-1.6,3.8-3.8V177h8.5c2,0,3.8-1.6,3.8-3.8c0-2-1.6-3.8-3.8-3.8h-11.7c-7.3-2-12.5-8.7-12.5-16.7c0-9.5,7.7-17.3,17.1-17.3
		c1.6,0,3,0.2,4.4,0.6c0,0.8-0.2,1.8-0.2,2.6c0,2,1.6,3.8,3.8,3.8s3.8-1.6,3.8-3.8c0-1.4,0.2-3,0.6-4.4l0,0
		c2-7.5,8.7-12.9,16.7-12.9c6.3,0,12.1,3.6,15.1,9.1c0.6,1.2,2,2,3.2,2c1.2,0,2.6-0.8,3.2-2c3-5.8,8.7-9.1,15.1-9.1
		c7.7,0,14.7,5.4,16.5,12.9l0,0c0.4,1.4,0.6,2.8,0.6,4.4c0,2,1.6,3.8,3.8,3.8s3.8-1.6,3.8-3.8c0-1,0-1.8-0.2-2.8
		c1.2-0.4,2.6-0.4,4-0.4c9.5,0,17.1,7.7,17.1,17.3c0,7.7-5.2,14.5-12.5,16.7h-20c-2,0-3.8,1.6-3.8,3.8c0,2,1.6,3.8,3.8,3.8H505v21.2
		h-24v-8.1c0-2-1.6-3.8-3.8-3.8c-2,0-3.8,1.6-3.8,3.8v8.1h-13.1v-8.1c0-2-1.6-3.8-3.8-3.8s-3.8,1.6-3.8,3.8v8.1h-13.3v-8.1
		c0-2-1.6-3.8-3.8-3.8s-3.8,1.6-3.8,3.8v8.1h-24v-1.6c0-2-1.6-3.8-3.8-3.8c-2,0-3.8,1.6-3.8,3.8v18.5v0.2v7.7
		c-6.3,3.4-10.5,9.9-10.5,17.7c0,8.5,5.4,15.9,12.9,18.7c2.4,6.9,26.4,33.1,53.4,33.1C483.6,292.9,507.6,266.5,510,259.6z
		 M512.3,245.9v-13.3c2,2.2,3.2,5.2,3.2,8.3c0,3.4-1.2,6.3-3.4,8.5C512.1,248.3,512.3,247.1,512.3,245.9z M397.6,240.9
		c0-3.2,1.2-6.2,3.2-8.3v13.3c0,1.2,0,2.4,0.2,3.6C399,247.1,397.6,244.1,397.6,240.9z M504.8,230h-1.2c-9.5,0-18.3-3.2-25.2-8.7
		c0.6-0.8,1.4-1.6,2-2.2H505V230H504.8z M408.2,205.8h96.6v6h-96.6V205.8z M408.2,219.1h62.1c-7.3,6.7-17.3,10.9-28,10.9H429
		c-7.3,0-14.3-2-20.6-5.6L408.2,219.1L408.2,219.1L408.2,219.1z M408.2,245.9V233c6.3,3,13.5,4.6,20.6,4.6h13.3
		c11.7,0,22.2-4.2,30.8-10.9c8.3,6.7,19,10.9,30.8,10.9h1.2v8.3c0,10.7-5.2,21.2-14.9,29.4c-9.1,7.9-21,12.5-32.5,12.5h-2.2
		c-11.5,0-23.2-4.6-32.5-12.5C413.5,267.1,408.2,256.6,408.2,245.9z"/>
	<path fill="#010101" d="M213.1,259.6c7.5-2.8,12.9-10.1,12.9-18.7c0-7.7-4.4-14.3-10.5-17.7V176c9.3-3.6,15.7-12.7,15.7-23
		c0-13.7-10.9-24.6-24.4-24.6c-2,0-4,0.2-6,0.8c-3.8-8.7-12.5-14.7-22.4-14.7c-7.1,0-13.9,3.2-18.5,8.3c-4.6-5.4-11.3-8.3-18.5-8.3
		c-9.9,0-18.7,6-22.4,14.9c-2-0.6-4.2-0.8-6.3-0.8c-13.5,0-24.4,11.1-24.4,24.6c0,10.3,6.3,19.4,15.7,23v7.3c0,2,1.6,3.8,3.8,3.8
		c2.2,0,3.8-1.6,3.8-3.8V177h8.5c2,0,3.8-1.6,3.8-3.8c0-2-1.6-3.8-3.8-3.8h-11.7c-7.3-2-12.5-8.7-12.5-16.7
		c0-9.5,7.7-17.3,17.1-17.3c1.6,0,3,0.2,4.4,0.6c0,0.8-0.2,1.8-0.2,2.6c0,2,1.6,3.8,3.8,3.8c2.2,0,3.8-1.6,3.8-3.8
		c0-1.4,0.2-3,0.6-4.4l0,0c2-7.5,8.7-12.9,16.7-12.9c6.3,0,12.1,3.6,15.1,9.1c0.6,1.2,2,2,3.2,2c1.4,0,2.6-0.8,3.2-2
		c3-5.8,8.7-9.1,15.1-9.1c7.7,0,14.7,5.4,16.5,12.9l0,0c0.4,1.4,0.6,2.8,0.6,4.4c0,2,1.6,3.8,3.8,3.8s3.8-1.6,3.8-3.8
		c0-1,0-1.8-0.2-2.8c1.2-0.4,2.6-0.4,4-0.4c9.5,0,17.1,7.7,17.1,17.3c0,7.7-5.2,14.5-12.5,16.7h-20c-2,0-3.8,1.6-3.8,3.8
		c0,2,1.6,3.8,3.8,3.8h16.9v21.2h-24v-8.1c0-2-1.6-3.8-3.8-3.8c-2.2,0-3.8,1.6-3.8,3.8v8.1h-13.3v-8.1c0-2-1.6-3.8-3.8-3.8
		c-2,0-3.8,1.6-3.8,3.8v8.1h-12.9v-8.1c0-2-1.6-3.8-3.8-3.8c-2.2,0-3.8,1.6-3.8,3.8v8.1h-23.8v-1.6c0-2-1.6-3.8-3.8-3.8
		c-2.2,0-3.8,1.6-3.8,3.8v18.5v0.2v7.7c-6.3,3.4-10.5,9.9-10.5,17.7c0,8.5,5.4,15.9,12.9,18.7c2.4,6.9,26.4,33.1,53.4,33.1
		S210.7,266.5,213.1,259.6z M215.5,245.9v-13.3c2,2.2,3.2,5.2,3.2,8.3c0,3.4-1.2,6.3-3.4,8.5C215.5,248.3,215.5,247.1,215.5,245.9z
		 M101,240.9c0-3.2,1.2-6.2,3.2-8.3v13.3c0,1.2,0,2.4,0.2,3.6C102.2,247.1,101,244.1,101,240.9z M208.1,230H207
		c-9.5,0-18.3-3.2-25.2-8.7c0.6-0.8,1.4-1.6,2-2.2h24.6V230H208.1z M111.5,205.8h96.6v6h-96.6V205.8z M111.5,219.1h61.9
		c-7.3,6.7-17.3,10.9-28,10.9h-13.3c-7.3,0-14.3-2-20.6-5.6L111.5,219.1L111.5,219.1L111.5,219.1z M111.5,245.9V233
		c6.3,3,13.5,4.6,20.6,4.6h13.3c11.7,0,22.2-4.2,30.8-10.9c8.3,6.7,19,10.9,30.8,10.9h1.2v8.3c0,10.7-5.2,21.2-14.9,29.4
		c-9.1,7.9-21,12.5-32.5,12.5h-2c-11.5,0-23.2-4.6-32.5-12.5C116.7,267.1,111.5,256.6,111.5,245.9z"/>
</g>
<g id="Stove" display="none">
	<g display="inline">
		<rect x="538.5" y="459.6" fill="#E6E6E5" width="22.2" height="31"/>
		<rect x="341.5" y="459.6" fill="#E6E6E5" width="22.2" height="31"/>
		<path fill="#CDCCCC" d="M538.5,459.6v16.1h22.2v-16.1H538.5z M341.5,475.7h22.2v-16.1h-22.2V475.7z"/>
		<path fill="#DD3D2A" d="M406.6,145.7c-3,0-5.6-2.6-5.6-5.6V125h-25v15.1c0,3.2-2.6,5.6-5.6,5.6c-3,0-5.6-2.6-5.6-5.6v-20.8
			c0-3.2,2.6-5.6,5.6-5.6h36.1c3,0,5.6,2.6,5.6,5.6v20.6C412.1,143.1,409.8,145.7,406.6,145.7z"/>
		<g>
			<path fill="#DD3D2A" d="M452.2,162.4h-22c-3,0-5.6-2.6-5.6-5.6c0-3.2,2.6-5.6,5.6-5.6h22c3,0,5.6,2.6,5.6,5.6
				S455.2,162.4,452.2,162.4z"/>
			<path fill="#DD3D2A" d="M347,162.4h-22c-3,0-5.6-2.6-5.6-5.6c0-3.2,2.6-5.6,5.6-5.6h22c3,0,5.6,2.6,5.6,5.6S350,162.4,347,162.4z
				"/>
		</g>
		<rect x="472.5" y="212.6" fill="#B4B4B4" width="82.3" height="13.9"/>
		<rect x="347.4" y="209.4" fill="#B4B4B4" width="82.3" height="16.9"/>
		<rect x="347.4" y="209.4" fill="#989898" width="22.2" height="16.9"/>
		<rect x="472.5" y="212.6" fill="#989898" width="22.2" height="13.9"/>
		<path fill="#E6E6E5" d="M577.4,230.6v225.2c0,4.8-3.8,8.7-8.5,8.7h-8.1h-22.2h-175h-22.2h-7.9c-4.8,0-8.5-4-8.5-8.7V230.6
			c0-4.8,3.8-8.7,8.5-8.7h14.1h82.3h42.7h82.3h14.1C573.7,221.9,577.4,225.8,577.4,230.6z"/>
		<polygon fill="#B4B4B4" points="519.1,288.7 538.5,288.7 538.5,420.5 363.7,420.5 363.7,288.7 459,288.7 		"/>
		<path fill="#B4B4B4" d="M459,271.7h-94.3c-7.9,0-14.3-6.5-14.3-14.7c0-4,1.6-7.5,4.2-10.3c2.8-2.8,6.3-4.4,10.1-4.4h4.2
			c3,0,5.6,2.6,5.6,5.6s-2.6,5.6-5.6,5.6h-4.2c-0.8,0-1.6,0.4-2.4,1c-0.6,0.6-1,1.4-1,2.4c0,1.8,1.4,3.4,3.2,3.4h94.3
			c3,0,5.6,2.6,5.6,5.6S461.9,271.7,459,271.7z"/>
		<path fill="#B4B4B4" d="M537.3,271.7h-18.3c-3,0-5.6-2.6-5.6-5.6c0-3,2.6-5.6,5.6-5.6h18.3c0.8,0,1.6-0.4,2.4-1
			c0.6-0.6,1-1.4,1-2.4c0-1.8-1.4-3.4-3.2-3.4h-4.2c-3,0-5.6-2.6-5.6-5.6s2.6-5.6,5.6-5.6h4.2c7.9,0,14.3,6.5,14.3,14.7
			c0,4-1.6,7.5-4.2,10.3C544.9,270.1,541.3,271.7,537.3,271.7z"/>
		<rect x="389.5" y="315.3" fill="#989898" width="69.4" height="11.3"/>
		<rect x="389.5" y="348.9" fill="#989898" width="123" height="11.3"/>
		<rect x="389.5" y="382.6" fill="#989898" width="123" height="11.3"/>
		<rect x="459" y="255.8" fill="#F7B238" width="60.1" height="80"/>
		<rect x="459" y="255.8" fill="#E6A12F" width="60.1" height="10.9"/>
		<path fill="#EF4326" d="M437.9,134.4v69.1c0,5-4,9.1-8.9,9.1h-80.8c-5,0-8.9-4-8.9-9.1v-69.1H437.9z"/>
		<path fill="#DD3D2A" d="M365.3,134.4v78.2h-17.1c-5,0-8.9-4-8.9-9.1v-69.1H365.3z"/>
	</g>
	<g display="inline">
		<g>
			<g>
				<path fill="#010101" d="M274.4,222.5h-16.3v-10.7c0-3-2.4-5.4-5.4-5.4h-78.2c-3,0-5.4,2.4-5.4,5.4v10.7h-30v-5.4h2.4
					c3,0,5.4-2.4,5.4-5.4v-53h15.7c3,0,5.4-2.4,5.4-5.4c0-3-2.4-5.4-5.4-5.4H147v-9.7c0-3-2.4-5.4-5.4-5.4h-24.4v-13.9
					c0-3-2.4-5.4-5.4-5.4H77.8c-3,0-5.4,2.4-5.4,5.4v14.1H48c-3,0-5.4,2.4-5.4,5.4v9.7H27c-3,0-5.4,2.4-5.4,5.4c0,3,2.4,5.4,5.4,5.4
					h15.7v53.2c0,3,2.4,5.4,5.4,5.4h2.4v5.4H34.1c-3,0-5.4,2.4-5.4,5.4v228.4c0,3,2.4,5.4,5.4,5.4h10.5v23.8c0,3,2.4,5.4,5.4,5.4h21
					c3,0,5.4-2.4,5.4-5.4V462h155.8v23.8c0,3,2.4,5.4,5.4,5.4h21c3,0,5.4-2.4,5.4-5.4V462h10.5c3,0,5.4-2.4,5.4-5.4V227.8
					C279.8,224.9,277.4,222.5,274.4,222.5z M179.8,217.3h67.9v5.4h-67.9V217.3z M82.9,124.3h23.8v8.9H82.9V124.3z M53.4,143.9h83.1
					v62.9H53.4V143.9z M128.8,217.3v5.4H60.9v-5.4H128.8z M65.9,480H55.4v-18.7h10.5V480z M253.4,480h-10.5v-18.7h10.5V480z
					 M269.3,450.9H39.5V233.2h229.8V450.9z"/>
				<path fill="#010101" d="M72.2,274.7h84.3v10.9H71.2c-3,0-5.4,2.4-5.4,5.4v123.8c0,3,2.4,5.4,5.4,5.4h166.5c3,0,5.4-2.4,5.4-5.4
					v-124c0-3-2.4-5.4-5.4-5.4h-13.5v-10.9h12.1c3.6,0,7.1-1.4,9.7-4c2.6-2.6,4-6,4-9.7c0-7.5-6.2-13.7-13.7-13.7h-4
					c-3,0-5.4,2.4-5.4,5.4c0,3,2.4,5.4,5.4,5.4h4c1.8,0,3.2,1.4,3.2,3.2c0,0.8-0.4,1.6-1,2.2c-0.6,0.6-1.4,1-2.2,1h-12.1V260
					c0-3-2.4-5.4-5.4-5.4h-57.1c-3,0-5.4,2.4-5.4,5.4v4.2H72.2c-1.8,0-3.2-1.4-3.2-3.2c0-0.8,0.4-1.6,1-2.2c0.6-0.6,1.4-1,2.2-1h4
					c3,0,5.4-2.4,5.4-5.4c0-3-2.4-5.4-5.4-5.4h-4c-3.6,0-7.1,1.4-9.7,4c-2.6,2.6-4,6-4,9.7C58.5,268.5,64.7,274.7,72.2,274.7z
					 M167.1,265.1h46.6v64.5h-46.6V265.1z M161.7,340.3h57.1c3,0,5.4-2.4,5.4-5.4v-38.9h7.9v113.3H76.4V296.1h80.2v19.6H95.8
					c-3,0-5.4,2.4-5.4,5.4c0,3,2.4,5.4,5.4,5.4h60.7v8.7C156.6,338,158.9,340.3,161.7,340.3z"/>
				<path fill="#010101" d="M90.5,352.6c0,3,2.4,5.4,5.4,5.4h117.1c3,0,5.4-2.4,5.4-5.4c0-3-2.4-5.4-5.4-5.4H95.8
					C92.9,347.3,90.5,349.7,90.5,352.6z"/>
				<path fill="#010101" d="M212.9,379H95.8c-3,0-5.4,2.4-5.4,5.4s2.4,5.4,5.4,5.4h117.1c3,0,5.4-2.4,5.4-5.4
					C218.1,381.4,215.7,379,212.9,379z"/>
			</g>
		</g>
	</g>
</g>
<g id="social" display="none">
	<rect x="374.4" y="185.8" display="inline" fill="#FFFFFF" width="50.4" height="72.2"/>
	<g display="inline">
		<path fill="#485A93" d="M429.2,178.6h-70.6c-2.4,0-4.4,2-4.4,4.4v70.6c0,2.4,2,4.4,4.4,4.4h38.1v-30.8h-10.3v-11.9h10.3v-8.9
			c0-10.3,6.3-15.9,15.5-15.9c4.4,0,8.1,0.4,9.3,0.4v10.7h-6.3c-5,0-6,2.4-6,5.8v7.7h11.9l-1.6,11.9h-10.3v30.8h20.2
			c2.4,0,4.4-2,4.4-4.4V183C433.6,180.6,431.6,178.6,429.2,178.6z"/>
	</g>
	<g display="inline">
		<path fill="#EDEDED" d="M461.5,256.8l5.6-19.8c-3.6-6.2-5.6-13.1-5.6-20c0-21.6,17.9-39.5,39.5-39.5c21.8,0,39.9,17.9,39.9,39.5
			s-18.1,39.9-39.9,39.9c-6.7,0-13.5-2.2-19.2-5.6L461.5,256.8z"/>
		<path fill="#64BE6C" d="M482.8,244.3l1.2,0.6c5.2,3.2,10.9,5.2,17.1,5.2c17.9,0,32.9-14.9,32.9-33.1s-14.9-32.5-32.9-32.5
			s-32.7,14.5-32.7,32.5c0,6.3,1.8,12.5,5.2,17.7l0.8,1.2l-3.2,11.5L482.8,244.3z"/>
		<path fill="#FFFFFF" d="M490.5,198.5l-2.6-0.2c-0.8,0-1.6,0.2-2.2,0.8c-1.2,1.2-3.4,3.2-3.8,6c-1,4.2,0.6,9.1,4.2,13.9
			c3.6,5,10.3,12.9,22.4,16.3c3.8,1.2,6.7,0.4,9.3-1.2c2-1.2,3.2-3.2,3.6-5.2l0.4-2c0.2-0.6-0.2-1.2-0.6-1.6l-8.5-4
			c-0.6-0.2-1.2-0.2-1.6,0.4l-3.4,4.4c-0.2,0.2-0.6,0.4-1.2,0.2c-2.4-0.8-10.1-4.2-14.3-12.3c-0.2-0.4-0.2-0.8,0.2-1.2l3.4-3.8
			c0.2-0.4,0.4-1,0.2-1.4l-4-8.9C491.5,199.1,491.1,198.5,490.5,198.5"/>
	</g>
	<g transform="translate(2 1)" display="inline">
		<g>
			<g>
				<path fill="#010101" d="M199.2,176.4c-21.6,0-39.3,17.7-39.3,39.1c0,6.7,1.8,13.5,5.2,19.4l-5.8,20.8l21.2-5.6
					c6.2,3.4,12.7,5.2,18.7,5.2c21.4,0,39.5-18.1,39.5-39.7S221,176.4,199.2,176.4z M199.2,252.6c-5.8,0-11.9-1.8-17.9-5.2l-0.6-0.2
					l-17.7,5l5-17.5l-0.2-0.6c-3.4-5.8-5.2-12.1-5.2-18.5c0-20,16.5-36.5,36.7-36.5c20.4,0,36.9,16.5,36.9,36.5
					S219.2,252.6,199.2,252.6z"/>
				<path fill="#010101" d="M199.2,183c-17.9,0-32.5,14.7-32.5,32.7c0,6.3,1.8,12.5,5.2,17.9l0.6,0.6l-3.8,12.5l12.9-3.4l0.6,0.4
					c5.4,3.4,11.3,5,17.1,5c18.1,0,32.9-14.9,32.9-33.1C232.3,197.7,217.5,183,199.2,183z M199.2,246.3c-5.2,0-10.7-1.8-15.7-4.8
					l-1.6-1l-9.5,2.4l2.6-9.1l-1-1.8c-3.2-5-4.8-10.5-4.8-16.3c0-16.5,13.5-30,30.2-30s30.4,13.5,30.4,30
					C229.6,232.4,216.1,246.1,199.2,246.3z"/>
				<path fill="#010101" d="M219,222.9l-8.3-3.8c-1.2-0.6-2.4-0.2-3.2,0.8l-3.2,4.2c-2.4-1-8.9-3.8-12.7-10.9l3-3.4
					c0.6-0.8,0.8-1.8,0.4-2.8l-3.6-8.3c-0.4-1-1.2-1.6-2.2-1.6l-2.6-0.2c-1,0-2.2,0.2-3,1c-1.2,1-3.4,3.4-4.2,6.3
					c-1,4.4,0.6,9.5,4.2,14.5c2.2,3.2,9.1,12.5,22.2,16.1c1.4,0.4,2.6,0.6,3.8,0.6c2.2,0,4.4-0.6,6.2-1.8c2.2-1.4,3.6-3.6,4.2-6
					l0.4-1.8C220.6,224.6,220,223.5,219,222.9z M217.3,227c-0.4,1.8-1.4,3.4-3,4.2c-2.2,1.4-5,1.8-7.7,1
					c-12.3-3.4-18.7-12.3-20.8-15.1c-3.2-4.4-4.6-8.7-3.8-12.3c0.6-2.4,2.2-4.2,3.4-5c0.2-0.2,0.6-0.4,1-0.4l2.6,0.2l3.6,8.3
					l-3.2,3.6c-0.6,0.6-0.6,1.8-0.2,2.6c4.4,8.3,12.3,11.7,14.7,12.5c1,0.2,1.8,0,2.6-0.8l3.2-4.2l8.3,3.8L217.3,227z"/>
			</g>
		</g>
	</g>
	<g transform="translate(1 1)" display="inline">
		<g>
			<path fill="#010101" d="M130.4,178.4H64.3c-3.8,0-6.5,3-6.5,6.5V251c0,3.8,3,6.5,6.5,6.5h30.4h15.9h19.8c3.8,0,6.5-3,6.5-6.5
				v-65.9C136.9,181.4,134.1,178.4,130.4,178.4z M97.2,255.2v-26.4H86.7v-10.5h10.5V209c0-7.5,5.8-13.9,13.3-14.5h11.9V205h-10.5
				c-2.2,0-4,1.8-4,4v9.3h13.3v10.5h-13.3v26.4H97.2L97.2,255.2z M134.3,251.2c0,2.2-1.8,4-4,4h-19.8v-23.8h13.3v-15.9h-13.3V209
				c0-0.8,0.6-1.4,1.4-1.4h13.3v-15.9h-14.7c-8.9,0.8-15.7,8.3-15.7,17.3v6.5H84.3v15.9h10.5v23.8H64.3c-2.2,0-4-1.8-4-4v-66.1
				c0-2.2,1.8-4,4-4h66.1c2.2,0,4,1.8,4,4V251.2L134.3,251.2z"/>
		</g>
	</g>
	<rect x="98.2" y="252.6" display="inline" fill="#FFFFFF" width="10.7" height="7.7"/>
	<g display="inline">
		
			<linearGradient id="SVGID_1_" gradientUnits="userSpaceOnUse" x1="556.0964" y1="434.7424" x2="556.0964" y2="543.7724" gradientTransform="matrix(0.7203 0 0 -0.7203 100.4773 665.014)">
			<stop  offset="0" style="stop-color:#E19C3E"/>
			<stop  offset="0.3" style="stop-color:#C74D4E"/>
			<stop  offset="0.6" style="stop-color:#C31C76"/>
			<stop  offset="1" style="stop-color:#6A479C"/>
		</linearGradient>
		<path fill="url(#SVGID_1_)" d="M517.1,272.7H485c-13.1,0-23.6,10.5-23.6,23.6v32.1c0,13.1,10.5,23.6,23.6,23.6h32.1
			c13.1,0,23.6-10.5,23.6-23.6v-32.1C540.7,283.4,530.2,272.7,517.1,272.7z M532.8,328.4c0,8.7-6.9,15.7-15.7,15.7H485
			c-8.7,0-15.7-6.9-15.7-15.7v-32.1c0-8.7,6.9-15.7,15.7-15.7h32.1c8.7,0,15.7,6.9,15.7,15.7V328.4L532.8,328.4z"/>
		
			<linearGradient id="SVGID_2_" gradientUnits="userSpaceOnUse" x1="556.0964" y1="434.7424" x2="556.0964" y2="543.7724" gradientTransform="matrix(0.7203 0 0 -0.7203 100.4773 665.014)">
			<stop  offset="0" style="stop-color:#E19C3E"/>
			<stop  offset="0.3" style="stop-color:#C74D4E"/>
			<stop  offset="0.6" style="stop-color:#C31C76"/>
			<stop  offset="1" style="stop-color:#6A479C"/>
		</linearGradient>
		<path fill="url(#SVGID_2_)" d="M501,291.9c-11.3,0-20.4,9.1-20.4,20.4c0,11.3,9.1,20.4,20.4,20.4c11.3,0,20.4-9.1,20.4-20.4
			S512.3,291.9,501,291.9z M501,325.1c-6.9,0-12.5-5.6-12.5-12.5c0-6.9,5.6-12.5,12.5-12.5c6.9,0,12.5,5.6,12.5,12.5
			C513.5,319.3,508,325.1,501,325.1z"/>
		
			<linearGradient id="SVGID_3_" gradientUnits="userSpaceOnUse" x1="584.7465" y1="434.7424" x2="584.7465" y2="543.7724" gradientTransform="matrix(0.7203 0 0 -0.7203 100.4773 665.014)">
			<stop  offset="0" style="stop-color:#E19C3E"/>
			<stop  offset="0.3" style="stop-color:#C74D4E"/>
			<stop  offset="0.6" style="stop-color:#C31C76"/>
			<stop  offset="1" style="stop-color:#6A479C"/>
		</linearGradient>
		<circle fill="url(#SVGID_3_)" cx="521.7" cy="292.1" r="5"/>
	</g>
	<g display="inline">
		<path stroke="#FFFFFF" stroke-width="2" stroke-miterlimit="10" d="M217.5,272.7h-32.1c-13.1,0-23.6,10.5-23.6,23.6v32.1
			c0,13.1,10.5,23.6,23.6,23.6h32.1c13.1,0,23.6-10.5,23.6-23.6v-32.1C241.1,283.4,230.6,272.7,217.5,272.7z M233.2,328.4
			c0,8.7-6.9,15.7-15.7,15.7h-32.1c-8.7,0-15.7-6.9-15.7-15.7v-32.1c0-8.7,6.9-15.7,15.7-15.7h32.1c8.7,0,15.7,6.9,15.7,15.7
			L233.2,328.4L233.2,328.4z"/>
		<path stroke="#FFFFFF" stroke-width="2" stroke-miterlimit="10" d="M201.4,291.9c-11.3,0-20.4,9.1-20.4,20.4
			c0,11.3,9.1,20.4,20.4,20.4s20.4-9.1,20.4-20.4S212.7,291.9,201.4,291.9z M201.4,325.1c-6.9,0-12.5-5.6-12.5-12.5
			c0-6.9,5.6-12.5,12.5-12.5s12.5,5.6,12.5,12.5C213.9,319.3,208.3,325.1,201.4,325.1z"/>
		<circle cx="222" cy="292.1" r="5"/>
	</g>
	<path display="inline" fill="#6EBAE7" d="M407.6,282.4c-9.1,0.2-16.5,8.1-16.5,17.3v2.2c-16.5-3-24.6-7.3-33.5-16.7
		c-5.4,10.3,0.6,19,6.9,23.6c-4.4,0-7.9-0.6-10.7-3c-0.2-0.2-0.6,0-0.4,0.2c2.4,8.7,10.5,14.9,16.7,16.7c-5.8,0-9.5,0.8-13.5-1.6
		c-0.2-0.2-0.6,0-0.4,0.2c3,8.5,9.1,11.1,18.1,11.1c-4.4,3.4-10.5,6.7-21.8,6.9c-0.4,0-0.8,0.6-0.2,0.8c4.2,3.6,14.5,6.2,29,6.2
		c23.8,0,43.3-21.2,43.3-47.4v-1.4c3.8-1.4,6-4.8,6.9-8.1c0-0.2-0.2-0.2-0.2-0.2l-7.9,2.8c-0.2,0-0.2-0.2-0.2-0.4
		c3.4-2.6,6-6,6.9-9.1l-0.2-0.2c-3.8,1.6-7.3,3-10.1,4c-0.4,0.2-1,0.2-1.4-0.2C416.5,285.2,411.1,282.4,407.6,282.4"/>
	<g display="inline">
		<g>
			<path fill="#010101" d="M133.5,289.3c-0.4-0.4-1-0.6-1.6-0.4l-2.8,1c1.6-2,2.8-4,3.4-5.8c0.2-0.6,0.2-1.2-0.2-1.6
				c-0.4-0.4-1-0.6-1.6-0.2c-3.8,1.6-6.9,3-9.7,3.8c0,0.2-0.2,0-0.2,0c-2.2-1.2-7.3-4-11.1-4c-9.5,0.2-17.3,8.1-17.3,18.1v0.6
				c-14.1-2.8-21.6-6.7-30-15.5l-1.4-1.4l-0.8,1.6c-4.6,8.7-1.4,16.7,4,22c-2.4-0.4-4-1.2-5.6-2.4c-0.6-0.4-1.2-0.6-2-0.2
				c-0.6,0.2-0.8,1-0.6,1.8c2,6.3,6.5,11.5,11.7,14.5c-2.4,0-4.4-0.2-6.5-1.6c-0.6-0.2-1.4-0.2-2,0.2c-0.6,0.4-0.8,1-0.6,1.8
				c2.4,6.9,7.1,10.5,14.7,11.5c-4,2.4-8.9,4.2-17.1,4.4c-0.8,0-1.4,0.6-1.8,1.2c-0.2,0.8,0,1.4,0.6,2c4.8,4,15.7,6.2,29,6.2
				c23.6,0,43.1-21.2,43.1-47.2v-0.4c3-1.4,5.4-4.4,6.5-8.1C134.1,290.3,133.9,289.7,133.5,289.3z M125.4,297.1l-0.8,0.2v2.4
				c0,24.6-18.3,44.4-40.5,44.4c-12.3,0-20.4-2-25-4.2c9.3-0.6,14.7-3.6,18.9-6.9l3.4-2.4h-4c-7.7,0-12.3-2.2-15.1-7.3
				c2.4,0.8,5,0.8,7.7,0.6c1-0.2,2.2-0.2,3.2-0.2l0.4-2.8c-5.2-1.4-11.1-6.2-14.1-12.3c2.8,1.2,5.8,1.4,8.3,1.4H72l-3.4-2.4
				c-2.8-2-11.1-9.1-7.1-19.4c8.5,8.5,16.9,12.3,31.7,15.1l1.6,0.2v-3.4c0-8.3,6.5-15.3,14.5-15.3c3.2-0.2,8.1,2.8,9.7,3.6
				c0.8,0.4,1.6,0.6,2.4,0.2c2-0.6,4.4-1.6,7.1-2.8c-1.2,2-2.8,4-5,5.8c-0.6,0.4-0.6,1.2-0.4,2c0.2,0.8,1,1,1.8,0.6l5.2-1.8
				C129.6,294.1,128,296.1,125.4,297.1z"/>
		</g>
	</g>
</g>
<g id="Layer_4">
</g>
</svg>
