<?xml version="1.0" encoding="utf-8"?>
<!-- Generator: Adobe Illustrator 17.1.0, SVG Export Plug-In . SVG Version: 6.00 Build 0)  -->
<!DOCTYPE svg PUBLIC "-//W3C//DTD SVG 1.1//EN" "http://www.w3.org/Graphics/SVG/1.1/DTD/svg11.dtd">
<svg version="1.1" id="Layer_1" xmlns="http://www.w3.org/2000/svg" xmlns:xlink="http://www.w3.org/1999/xlink" x="0px" y="0px"
	 viewBox="323.9 209.7 10.9 17.3" enable-background="new 323.9 209.7 10.9 17.3" xml:space="preserve">
<g>
	<path d="M329.4,209.7c2.6,0,4.9,1.8,5.3,4.2c0.2,1.2-0.2,2.2-0.7,3.3c-0.4,0.7-1.1,1.4-1.5,2.1c-1.3,2-2.2,4.2-2.7,6.5
		c-0.1,0.3-0.1,0.7-0.1,1c0,0.1-0.1,0.2-0.3,0.2c-0.2,0-0.2,0-0.3-0.2c-0.4-3.2-1.5-6-3.6-8.6c-0.6-0.7-1.1-1.5-1.4-2.3
		c-0.5-1.3-0.2-2.5,0.5-3.7c0.9-1.4,2.2-2.3,4-2.5h0.1C329,209.7,329.2,209.7,329.4,209.7z"/>
	<path fill="#C22048" d="M329.4,225.3c-0.1-0.4-0.2-0.7-0.3-1.1c-0.6-2.2-1.5-4.2-3-6c-0.6-0.7-1.2-1.5-1.5-2.4
		c-0.5-1.4-0.1-2.7,0.7-3.9c0.9-1.1,2-1.7,3.5-1.9c2.6-0.2,4.7,1.3,5.4,3.6c0.4,1.3-0.1,2.4-0.8,3.5c-0.3,0.5-0.7,1-1.1,1.5
		c-1.4,1.9-2.3,4.1-2.8,6.3C329.4,225.1,329.4,225.2,329.4,225.3z"/>
</g>
</svg>
