<?xml version="1.0" encoding="utf-8"?>
<!-- Generator: Adobe Illustrator 17.1.0, SVG Export Plug-In . SVG Version: 6.00 Build 0)  -->
<!DOCTYPE svg PUBLIC "-//W3C//DTD SVG 1.1//EN" "http://www.w3.org/Graphics/SVG/1.1/DTD/svg11.dtd">
<svg version="1.1" xmlns="http://www.w3.org/2000/svg" xmlns:xlink="http://www.w3.org/1999/xlink" x="0px" y="0px"
	 viewBox="0 0 300 121" enable-background="new 0 0 300 121" xml:space="preserve">
<g id="Layer_1">
</g>
<g id="Layer_2" display="none">
	<g display="inline">
		<rect x="271.4" y="159.9" fill="#E6E6E5" width="11.2" height="15.6"/>
		<rect x="172.1" y="159.9" fill="#E6E6E5" width="11.2" height="15.6"/>
		<path fill="#CDCCCC" d="M271.4,159.9v8.1h11.2v-8.1H271.4z M172.1,167.9h11.2v-8.1h-11.2V167.9z"/>
		<path fill="#DD3D2A" d="M204.9,1.6c-1.5,0-2.8-1.3-2.8-2.8v-7.6h-12.6v7.6c0,1.6-1.3,2.8-2.8,2.8c-1.5,0-2.8-1.3-2.8-2.8v-10.4
			c0-1.6,1.3-2.8,2.8-2.8h18.2c1.5,0,2.8,1.3,2.8,2.8v10.4C207.7,0.4,206.5,1.6,204.9,1.6z"/>
		<g>
			<path fill="#DD3D2A" d="M227.9,10h-11.1c-1.5,0-2.8-1.3-2.8-2.8s1.3-2.8,2.8-2.8h11.1c1.5,0,2.8,1.3,2.8,2.8S229.4,10,227.9,10z"
				/>
			<path fill="#DD3D2A" d="M174.9,10h-11.1c-1.5,0-2.8-1.3-2.8-2.8s1.3-2.8,2.8-2.8h11.1c1.5,0,2.8,1.3,2.8,2.8S176.4,10,174.9,10z"
				/>
		</g>
		<rect x="238.1" y="35.3" fill="#B4B4B4" width="41.5" height="7"/>
		<rect x="175.1" y="33.7" fill="#B4B4B4" width="41.5" height="8.5"/>
		<rect x="175.1" y="33.7" fill="#989898" width="11.2" height="8.5"/>
		<rect x="238.1" y="35.3" fill="#989898" width="11.2" height="7"/>
		<path fill="#E6E6E5" d="M291,44.5V158c0,2.4-1.9,4.4-4.3,4.4h-4.1h-11.2h-88.2h-11.2H168c-2.4,0-4.3-2-4.3-4.4V44.5
			c0-2.4,1.9-4.4,4.3-4.4h7.1h41.5h21.5h41.5h7.1C289.1,40.1,291,42,291,44.5z"/>
		<polygon fill="#B4B4B4" points="261.6,73.7 271.4,73.7 271.4,140.1 183.3,140.1 183.3,73.7 231.3,73.7 		"/>
		<path fill="#B4B4B4" d="M231.3,65.1h-47.5c-4,0-7.2-3.3-7.2-7.4c0-2,0.8-3.8,2.1-5.2c1.4-1.4,3.2-2.2,5.1-2.2h2.1
			c1.5,0,2.8,1.3,2.8,2.8c0,1.6-1.3,2.8-2.8,2.8h-2.1c-0.4,0-0.8,0.2-1.2,0.5c-0.3,0.3-0.5,0.7-0.5,1.2c0,0.9,0.7,1.7,1.6,1.7h47.5
			c1.5,0,2.8,1.3,2.8,2.8S232.8,65.1,231.3,65.1z"/>
		<path fill="#B4B4B4" d="M270.8,65.1h-9.2c-1.5,0-2.8-1.3-2.8-2.8s1.3-2.8,2.8-2.8h9.2c0.4,0,0.8-0.2,1.2-0.5
			c0.3-0.3,0.5-0.7,0.5-1.2c0-0.9-0.7-1.7-1.6-1.7h-2.1c-1.5,0-2.8-1.3-2.8-2.8c0-1.6,1.3-2.8,2.8-2.8h2.1c4,0,7.2,3.3,7.2,7.4
			c0,2-0.8,3.8-2.1,5.2C274.6,64.3,272.8,65.1,270.8,65.1z"/>
		<rect x="196.3" y="87.1" fill="#989898" width="35" height="5.7"/>
		<rect x="196.3" y="104.1" fill="#989898" width="62" height="5.7"/>
		<rect x="196.3" y="121.1" fill="#989898" width="62" height="5.7"/>
		<rect x="231.3" y="57.1" fill="#F7B238" width="30.3" height="40.3"/>
		<rect x="231.3" y="57.1" fill="#E6A12F" width="30.3" height="5.5"/>
		<path fill="#EF4326" d="M220.7-4v34.8c0,2.5-2,4.6-4.5,4.6h-40.7c-2.5,0-4.5-2-4.5-4.6V-4H220.7z"/>
		<path fill="#DD3D2A" d="M184.1-4v39.4h-8.6c-2.5,0-4.5-2-4.5-4.6V-4H184.1z"/>
	</g>
	<g display="inline">
		<g>
			<g>
				<path fill="#010101" d="M138.3,40.4h-8.2V35c0-1.5-1.2-2.7-2.7-2.7H88c-1.5,0-2.7,1.2-2.7,2.7v5.4H70.2v-2.7h1.2
					c1.5,0,2.7-1.2,2.7-2.7V8.3H82c1.5,0,2.7-1.2,2.7-2.7S83.5,2.9,82,2.9h-7.9V-2c0-1.5-1.2-2.7-2.7-2.7H59.1v-7.1
					c0-1.5-1.2-2.7-2.7-2.7H39.2c-1.5,0-2.7,1.2-2.7,2.7v7.1H24.2c-1.5,0-2.7,1.2-2.7,2.7v4.9h-7.9c-1.5,0-2.7,1.2-2.7,2.7
					s1.2,2.7,2.7,2.7h7.9V35c0,1.5,1.2,2.7,2.7,2.7h1.2v2.7h-8.2c-1.5,0-2.7,1.2-2.7,2.7v115.1c0,1.5,1.2,2.7,2.7,2.7h5.3v12
					c0,1.5,1.2,2.7,2.7,2.7h10.6c1.5,0,2.7-1.2,2.7-2.7v-12H117v12c0,1.5,1.2,2.7,2.7,2.7h10.6c1.5,0,2.7-1.2,2.7-2.7v-12h5.3
					c1.5,0,2.7-1.2,2.7-2.7V43.1C141,41.6,139.8,40.4,138.3,40.4z M90.6,37.7h34.2v2.7H90.6V37.7z M41.8-9.1h12v4.5h-12V-9.1z
					 M26.9,0.7h41.9v31.7H26.9V0.7z M64.9,37.7v2.7H30.7v-2.7H64.9z M33.2,170.2h-5.3v-9.4h5.3V170.2z M127.7,170.2h-5.3v-9.4h5.3
					V170.2z M135.7,155.5H19.9V45.7h115.8V155.5z"/>
				<path fill="#010101" d="M36.4,66.6h42.5v5.5h-43c-1.5,0-2.7,1.2-2.7,2.7v62.4c0,1.5,1.2,2.7,2.7,2.7h83.9c1.5,0,2.7-1.2,2.7-2.7
					V74.7c0-1.5-1.2-2.7-2.7-2.7H113v-5.5h6.1c1.8,0,3.6-0.7,4.9-2c1.3-1.3,2-3,2-4.9c0-3.8-3.1-6.9-6.9-6.9h-2
					c-1.5,0-2.7,1.2-2.7,2.7c0,1.5,1.2,2.7,2.7,2.7h2c0.9,0,1.6,0.7,1.6,1.6c0,0.4-0.2,0.8-0.5,1.1c-0.3,0.3-0.7,0.5-1.1,0.5H113
					v-2.1c0-1.5-1.2-2.7-2.7-2.7H81.5c-1.5,0-2.7,1.2-2.7,2.7v2.1H36.4c-0.9,0-1.6-0.7-1.6-1.6c0-0.4,0.2-0.8,0.5-1.1
					c0.3-0.3,0.7-0.5,1.1-0.5h2c1.5,0,2.7-1.2,2.7-2.7c0-1.5-1.2-2.7-2.7-2.7h-2c-1.8,0-3.6,0.7-4.9,2c-1.3,1.3-2,3-2,4.9
					C29.5,63.5,32.6,66.6,36.4,66.6z M84.2,61.8h23.5v32.5H84.2V61.8z M81.5,99.7h28.8c1.5,0,2.7-1.2,2.7-2.7V77.4h4v57.1H38.5V77.4
					h40.4v9.9H48.3c-1.5,0-2.7,1.2-2.7,2.7c0,1.5,1.2,2.7,2.7,2.7h30.6V97C78.9,98.5,80.1,99.7,81.5,99.7z"/>
				<path fill="#010101" d="M45.6,105.9c0,1.5,1.2,2.7,2.7,2.7h59c1.5,0,2.7-1.2,2.7-2.7c0-1.5-1.2-2.7-2.7-2.7h-59
					C46.8,103.3,45.6,104.5,45.6,105.9z"/>
				<path fill="#010101" d="M107.3,119.2h-59c-1.5,0-2.7,1.2-2.7,2.7c0,1.5,1.2,2.7,2.7,2.7h59c1.5,0,2.7-1.2,2.7-2.7
					C109.9,120.4,108.7,119.2,107.3,119.2z"/>
			</g>
		</g>
	</g>
</g>
<g id="Layer_3">
	<rect x="188.7" y="21.8" fill="#FFFFFF" width="25.4" height="36.4"/>
	<g>
		<path fill="#485A93" d="M216.3,18.2h-35.6c-1.2,0-2.2,1-2.2,2.2V56c0,1.2,1,2.2,2.2,2.2h19.2V42.7h-5.2v-6h5.2v-4.5
			c0-5.2,3.2-8,7.8-8c2.2,0,4.1,0.2,4.7,0.2v5.4l-3.2,0c-2.5,0-3,1.2-3,2.9v3.9h6l-0.8,6h-5.2v15.5h10.2c1.2,0,2.2-1,2.2-2.2V20.4
			C218.5,19.2,217.5,18.2,216.3,18.2z"/>
	</g>
	<g>
		<path fill="#EDEDED" d="M232.6,57.7l2.8-10c-1.8-3.1-2.8-6.6-2.8-10.1c0-10.9,9-19.9,19.9-19.9c11,0,20.1,9,20.1,19.9
			s-9.1,20.1-20.1,20.1c-3.4,0-6.8-1.1-9.7-2.8L232.6,57.7z"/>
		<path fill="#64BE6C" d="M243.3,51.3l0.6,0.3c2.6,1.6,5.5,2.6,8.6,2.6c9,0,16.6-7.5,16.6-16.7s-7.5-16.4-16.6-16.4
			c-9.1,0-16.5,7.3-16.5,16.4c0,3.2,0.9,6.3,2.6,8.9L239,47l-1.6,5.8L243.3,51.3z"/>
		<path fill="#FFFFFF" d="M247.2,28.3l-1.3-0.1c-0.4,0-0.8,0.1-1.1,0.4c-0.6,0.6-1.7,1.6-1.9,3c-0.5,2.1,0.3,4.6,2.1,7
			c1.8,2.5,5.2,6.5,11.3,8.2c1.9,0.6,3.4,0.2,4.7-0.6c1-0.6,1.6-1.6,1.8-2.6l0.2-1c0.1-0.3-0.1-0.6-0.3-0.8l-4.3-2
			c-0.3-0.1-0.6-0.1-0.8,0.2l-1.7,2.2c-0.1,0.1-0.3,0.2-0.6,0.1c-1.2-0.4-5.1-2.1-7.2-6.2c-0.1-0.2-0.1-0.4,0.1-0.6l1.7-1.9
			c0.1-0.2,0.2-0.5,0.1-0.7l-2-4.5C247.7,28.5,247.5,28.3,247.2,28.3"/>
	</g>
	<g transform="translate(2 1)">
		<g>
			<g>
				<path fill="#010101" d="M99.4,16.7c-10.9,0-19.8,8.9-19.8,19.7c0,3.4,0.9,6.8,2.6,9.8l-2.9,10.5L90,53.8
					c3.1,1.7,6.4,2.6,9.4,2.6c10.8,0,19.9-9.1,19.9-20S110.4,16.7,99.4,16.7z M99.4,55.1c-2.9,0-6-0.9-9-2.6l-0.3-0.1l-8.9,2.5
					l2.5-8.8l-0.1-0.3c-1.7-2.8-2.6-6.1-2.6-9.3C81,26.3,89.3,18,99.4,18c10.3,0,18.6,8.3,18.6,18.4S109.5,55.1,99.4,55.1z"/>
				<path fill="#010101" d="M99.4,20C90.4,20,83,27.3,83,36.4c0,3.2,0.9,6.3,2.6,9l0.3,0.3L84,52l6.5-1.7l0.3,0.2
					c2.7,1.7,5.7,2.5,8.6,2.5c9.1,0,16.6-7.5,16.6-16.7C116.1,27.3,108.6,20,99.4,20z M99.4,51.8c-2.6,0-5.4-0.9-7.9-2.4l-0.8-0.5
					l-4.8,1.2l1.3-4.6l-0.5-0.9c-1.6-2.5-2.4-5.3-2.4-8.2c0-8.3,6.8-15.1,15.2-15.1c8.4,0,15.3,6.8,15.3,15.1
					C114.7,44.9,107.9,51.8,99.4,51.8z"/>
				<path fill="#010101" d="M109.4,40l-4.2-1.9c-0.6-0.3-1.2-0.1-1.6,0.4l-1.6,2.1c-1.2-0.5-4.5-1.9-6.4-5.5l1.5-1.7
					c0.3-0.4,0.4-0.9,0.2-1.4l-1.8-4.2c-0.2-0.5-0.6-0.8-1.1-0.8l-1.3-0.1c-0.5,0-1.1,0.1-1.5,0.5c-0.6,0.5-1.7,1.7-2.1,3.2
					c-0.5,2.2,0.3,4.8,2.1,7.3c1.1,1.6,4.6,6.3,11.2,8.1c0.7,0.2,1.3,0.3,1.9,0.3c1.1,0,2.2-0.3,3.1-0.9c1.1-0.7,1.8-1.8,2.1-3
					l0.2-0.9C110.2,40.9,109.9,40.3,109.4,40z M108.5,42.1c-0.2,0.9-0.7,1.7-1.5,2.1c-1.1,0.7-2.5,0.9-3.9,0.5
					c-6.2-1.7-9.4-6.2-10.5-7.6c-1.6-2.2-2.3-4.4-1.9-6.2c0.3-1.2,1.1-2.1,1.7-2.5c0.1-0.1,0.3-0.2,0.5-0.2l1.3,0.1l1.8,4.2
					l-1.6,1.8c-0.3,0.3-0.3,0.9-0.1,1.3c2.2,4.2,6.2,5.9,7.4,6.3c0.5,0.1,0.9,0,1.3-0.4l1.6-2.1l4.2,1.9L108.5,42.1z"/>
			</g>
		</g>
	</g>
	<g transform="translate(1 1)">
		<g>
			<path fill="#010101" d="M65.2,17.7H31.9c-1.9,0-3.3,1.5-3.3,3.3v33.3c0,1.9,1.5,3.3,3.3,3.3h15.3h8h10c1.9,0,3.3-1.5,3.3-3.3V21
				C68.5,19.1,67.1,17.7,65.2,17.7z M48.5,56.3V43h-5.3v-5.3h5.3V33c0-3.8,2.9-7,6.7-7.3h6V31h-5.3c-1.1,0-2,0.9-2,2v4.7h6.7V43
				h-6.7v13.3L48.5,56.3L48.5,56.3z M67.2,54.3c0,1.1-0.9,2-2,2h-10v-12h6.7v-8h-6.7V33c0-0.4,0.3-0.7,0.7-0.7h6.7v-8h-7.4
				c-4.5,0.4-7.9,4.2-7.9,8.7v3.3h-5.3v8h5.3v12H31.9c-1.1,0-2-0.9-2-2V21c0-1.1,0.9-2,2-2h33.3c1.1,0,2,0.9,2,2L67.2,54.3
				L67.2,54.3z"/>
		</g>
	</g>
	<rect x="49.5" y="55.5" fill="#FFFFFF" width="5.4" height="3.9"/>
	<g>
		
			<linearGradient id="SVGID_1_" gradientUnits="userSpaceOnUse" x1="556.2292" y1="-32.3658" x2="556.2292" y2="-141.3958" gradientTransform="matrix(0.363 0 0 0.363 50.637 117.297)">
			<stop  offset="0" style="stop-color:#E19C3E"/>
			<stop  offset="0.3" style="stop-color:#C74D4E"/>
			<stop  offset="0.6" style="stop-color:#C31C76"/>
			<stop  offset="1" style="stop-color:#6A479C"/>
		</linearGradient>
		<path fill="url(#SVGID_1_)" d="M260.6,65.7h-16.2c-6.6,0-11.9,5.3-11.9,11.9v16.2c0,6.6,5.3,11.9,11.9,11.9h16.2
			c6.6,0,11.9-5.3,11.9-11.9V77.6C272.5,71,267.2,65.7,260.6,65.7z M268.5,93.7c0,4.4-3.5,7.9-7.9,7.9h-16.2c-4.4,0-7.9-3.5-7.9-7.9
			V77.6c0-4.4,3.5-7.9,7.9-7.9h16.2c4.4,0,7.9,3.5,7.9,7.9V93.7L268.5,93.7z"/>
		
			<linearGradient id="SVGID_2_" gradientUnits="userSpaceOnUse" x1="556.2292" y1="-32.3658" x2="556.2292" y2="-141.3958" gradientTransform="matrix(0.363 0 0 0.363 50.637 117.297)">
			<stop  offset="0" style="stop-color:#E19C3E"/>
			<stop  offset="0.3" style="stop-color:#C74D4E"/>
			<stop  offset="0.6" style="stop-color:#C31C76"/>
			<stop  offset="1" style="stop-color:#6A479C"/>
		</linearGradient>
		<path fill="url(#SVGID_2_)" d="M252.5,75.3c-5.7,0-10.3,4.6-10.3,10.3c0,5.7,4.6,10.3,10.3,10.3s10.3-4.6,10.3-10.3
			S258.2,75.3,252.5,75.3z M252.5,92c-3.5,0-6.3-2.8-6.3-6.3c0-3.5,2.8-6.3,6.3-6.3c3.5,0,6.3,2.8,6.3,6.3
			C258.8,89.2,256,92,252.5,92z"/>
		
			<linearGradient id="SVGID_3_" gradientUnits="userSpaceOnUse" x1="584.7878" y1="-32.3658" x2="584.7878" y2="-141.3958" gradientTransform="matrix(0.363 0 0 0.363 50.637 117.297)">
			<stop  offset="0" style="stop-color:#E19C3E"/>
			<stop  offset="0.3" style="stop-color:#C74D4E"/>
			<stop  offset="0.6" style="stop-color:#C31C76"/>
			<stop  offset="1" style="stop-color:#6A479C"/>
		</linearGradient>
		<circle fill="url(#SVGID_3_)" cx="262.9" cy="75.4" r="2.5"/>
	</g>
	<g>
		<path stroke="#FFFFFF" stroke-width="2" stroke-miterlimit="10" d="M109.6,65.7H93.4c-6.6,0-11.9,5.3-11.9,11.9v16.2
			c0,6.6,5.3,11.9,11.9,11.9h16.2c6.6,0,11.9-5.3,11.9-11.9V77.6C121.5,71,116.2,65.7,109.6,65.7z M117.5,93.7
			c0,4.4-3.5,7.9-7.9,7.9H93.4c-4.4,0-7.9-3.5-7.9-7.9V77.6c0-4.4,3.5-7.9,7.9-7.9h16.2c4.4,0,7.9,3.5,7.9,7.9L117.5,93.7
			L117.5,93.7z"/>
		<path stroke="#FFFFFF" stroke-width="2" stroke-miterlimit="10" d="M101.5,75.3c-5.7,0-10.3,4.6-10.3,10.3
			c0,5.7,4.6,10.3,10.3,10.3s10.3-4.6,10.3-10.3S107.2,75.3,101.5,75.3z M101.5,92c-3.5,0-6.3-2.8-6.3-6.3c0-3.5,2.8-6.3,6.3-6.3
			c3.5,0,6.3,2.8,6.3,6.3C107.8,89.2,105,92,101.5,92z"/>
		<circle cx="111.9" cy="75.4" r="2.5"/>
	</g>
	<path fill="#6EBAE7" d="M205.4,70.5c-4.6,0.1-8.3,4.1-8.3,8.7v1.1c-8.3-1.5-12.4-3.7-16.9-8.4c-2.7,5.2,0.3,9.6,3.5,11.9
		c-2.2,0-4-0.3-5.4-1.5c-0.1-0.1-0.3,0-0.2,0.1c1.2,4.4,5.3,7.5,8.4,8.4c-2.9,0-4.8,0.4-6.8-0.8c-0.1-0.1-0.3,0-0.2,0.1
		c1.5,4.3,4.6,5.6,9.1,5.6c-2.2,1.7-5.3,3.4-11,3.5c-0.2,0-0.4,0.3-0.1,0.4c2.1,1.8,7.3,3.1,14.6,3.1c12,0,21.8-10.7,21.8-23.9v-0.7
		c1.9-0.7,3-2.4,3.5-4.1c0-0.1-0.1-0.1-0.1-0.1l-4,1.4c-0.1,0-0.1-0.1-0.1-0.2c1.7-1.3,3-3,3.5-4.6c0,0-0.1-0.1-0.1-0.1
		c-1.9,0.8-3.7,1.5-5.1,2c-0.2,0.1-0.5,0.1-0.7-0.1C209.9,71.9,207.2,70.5,205.4,70.5"/>
	<g>
		<g>
			<path fill="#010101" d="M67.3,74c-0.2-0.2-0.5-0.3-0.8-0.2l-1.4,0.5c0.8-1,1.4-2,1.7-2.9c0.1-0.3,0.1-0.6-0.1-0.8
				c-0.2-0.2-0.5-0.3-0.8-0.1c-1.9,0.8-3.5,1.5-4.9,1.9c0,0.1-0.1,0-0.1,0c-1.1-0.6-3.7-2-5.6-2c-4.8,0.1-8.7,4.1-8.7,9.1v0.3
				c-7.1-1.4-10.9-3.4-15.1-7.8l-0.7-0.7l-0.4,0.8c-2.3,4.4-0.7,8.4,2,11.1c-1.2-0.2-2-0.6-2.8-1.2c-0.3-0.2-0.6-0.3-1-0.1
				c-0.3,0.1-0.4,0.5-0.3,0.9c1,3.2,3.3,5.8,5.9,7.3c-1.2,0-2.2-0.1-3.3-0.8c-0.3-0.1-0.7-0.1-1,0.1s-0.4,0.5-0.3,0.9
				c1.2,3.5,3.6,5.3,7.4,5.8c-2,1.2-4.5,2.1-8.6,2.2c-0.4,0-0.7,0.3-0.9,0.6c-0.1,0.4,0,0.7,0.3,1c2.4,2,7.9,3.1,14.6,3.1
				c11.9,0,21.7-10.7,21.7-23.8V79c1.5-0.7,2.7-2.2,3.3-4.1C67.6,74.6,67.5,74.2,67.3,74z M63.2,77.9L62.8,78v1.2
				c0,12.4-9.2,22.4-20.4,22.4c-6.2,0-10.3-1-12.6-2.1c4.7-0.3,7.4-1.8,9.5-3.5l1.7-1.2h-2c-3.9,0-6.2-1.1-7.6-3.7
				c1.2,0.4,2.5,0.4,3.9,0.3c0.5-0.1,1.1-0.1,1.6-0.1l0.2-1.4c-2.6-0.7-5.6-3.1-7.1-6.2c1.4,0.6,2.9,0.7,4.2,0.7h2.1l-1.7-1.2
				c-1.4-1-5.6-4.6-3.6-9.8c4.3,4.3,8.5,6.2,16,7.6l0.8,0.1v-1.9c0-4.2,3.3-7.7,7.3-7.7c1.6-0.1,4.1,1.4,4.9,1.8
				c0.4,0.2,0.8,0.3,1.2,0.1c1-0.3,2.2-0.8,3.6-1.4c-0.6,1-1.4,2-2.5,2.9c-0.3,0.2-0.3,0.6-0.2,1c0.1,0.3,0.5,0.5,0.9,0.3l2.6-0.9
				C65.3,76.4,64.5,77.4,63.2,77.9z"/>
		</g>
	</g>
</g>
</svg>
