<?xml version="1.0" encoding="utf-8"?>
<!-- Generator: Adobe Illustrator 17.1.0, SVG Export Plug-In . SVG Version: 6.00 Build 0)  -->
<!DOCTYPE svg PUBLIC "-//W3C//DTD SVG 1.1//EN" "http://www.w3.org/Graphics/SVG/1.1/DTD/svg11.dtd">
<svg version="1.1" id="Layer_1" xmlns="http://www.w3.org/2000/svg" xmlns:xlink="http://www.w3.org/1999/xlink" x="0px" y="0px"
	 viewBox="0 0 300 200" enable-background="new 0 0 300 200" xml:space="preserve">
<g>
	<g>
		<g>
			<path fill="#010101" d="M138.3,58.9h-8.2v-5.4c0-1.5-1.2-2.7-2.7-2.7H88c-1.5,0-2.7,1.2-2.7,2.7v5.4H70.2v-2.7h1.2
				c1.5,0,2.7-1.2,2.7-2.7V26.8H82c1.5,0,2.7-1.2,2.7-2.7s-1.2-2.7-2.7-2.7h-7.9v-4.9c0-1.5-1.2-2.7-2.7-2.7H59.1V6.8
				c0-1.5-1.2-2.7-2.7-2.7H39.2c-1.5,0-2.7,1.2-2.7,2.7v7.1H24.2c-1.5,0-2.7,1.2-2.7,2.7v4.9h-7.9c-1.5,0-2.7,1.2-2.7,2.7
				s1.2,2.7,2.7,2.7h7.9v26.8c0,1.5,1.2,2.7,2.7,2.7h1.2v2.7h-8.2c-1.5,0-2.7,1.2-2.7,2.7v115.1c0,1.5,1.2,2.7,2.7,2.7h5.3v12
				c0,1.5,1.2,2.7,2.7,2.7h10.6c1.5,0,2.7-1.2,2.7-2.7v-12H117v12c0,1.5,1.2,2.7,2.7,2.7h10.6c1.5,0,2.7-1.2,2.7-2.7v-12h5.3
				c1.5,0,2.7-1.2,2.7-2.7V61.6C141,60.1,139.8,58.9,138.3,58.9z M90.6,56.3h34.2v2.7H90.6V56.3z M41.8,9.4h12v4.5h-12V9.4z
				 M26.9,19.3h41.9v31.7H26.9V19.3z M64.9,56.3v2.7H30.7v-2.7H64.9z M33.2,188.7h-5.3v-9.4h5.3V188.7z M127.7,188.7h-5.3v-9.4h5.3
				V188.7z M135.7,174H19.9V64.3h115.8V174z"/>
			<path fill="#010101" d="M36.4,85.2h42.5v5.5h-43c-1.5,0-2.7,1.2-2.7,2.7v62.4c0,1.5,1.2,2.7,2.7,2.7h83.9c1.5,0,2.7-1.2,2.7-2.7
				V93.3c0-1.5-1.2-2.7-2.7-2.7H113v-5.5h6.1c1.8,0,3.6-0.7,4.9-2c1.3-1.3,2-3,2-4.9c0-3.8-3.1-6.9-6.9-6.9h-2
				c-1.5,0-2.7,1.2-2.7,2.7c0,1.5,1.2,2.7,2.7,2.7h2c0.9,0,1.6,0.7,1.6,1.6c0,0.4-0.2,0.8-0.5,1.1c-0.3,0.3-0.7,0.5-1.1,0.5H113
				v-2.1c0-1.5-1.2-2.7-2.7-2.7H81.5c-1.5,0-2.7,1.2-2.7,2.7v2.1H36.4c-0.9,0-1.6-0.7-1.6-1.6c0-0.4,0.2-0.8,0.5-1.1
				c0.3-0.3,0.7-0.5,1.1-0.5h2c1.5,0,2.7-1.2,2.7-2.7c0-1.5-1.2-2.7-2.7-2.7h-2c-1.8,0-3.6,0.7-4.9,2c-1.3,1.3-2,3-2,4.9
				C29.5,82.1,32.6,85.2,36.4,85.2z M84.2,80.4h23.5v32.5H84.2V80.4z M81.5,118.3h28.8c1.5,0,2.7-1.2,2.7-2.7V96h4v57.1H38.5V96
				h40.4v9.9H48.3c-1.5,0-2.7,1.2-2.7,2.7s1.2,2.7,2.7,2.7h30.6v4.4C78.9,117.1,80.1,118.3,81.5,118.3z"/>
			<path fill="#010101" d="M45.6,124.5c0,1.5,1.2,2.7,2.7,2.7h59c1.5,0,2.7-1.2,2.7-2.7c0-1.5-1.2-2.7-2.7-2.7h-59
				C46.8,121.8,45.6,123,45.6,124.5z"/>
			<path fill="#010101" d="M107.3,137.8h-59c-1.5,0-2.7,1.2-2.7,2.7c0,1.5,1.2,2.7,2.7,2.7h59c1.5,0,2.7-1.2,2.7-2.7
				C109.9,139,108.7,137.8,107.3,137.8z"/>
		</g>
	</g>
</g>
<g>
	<rect x="271.4" y="178.4" fill="#E6E6E5" width="11.2" height="15.6"/>
	<rect x="172.1" y="178.4" fill="#E6E6E5" width="11.2" height="15.6"/>
	<path fill="#CDCCCC" d="M271.4,178.4v8.1h11.2v-8.1H271.4z M172.1,186.5h11.2v-8.1h-11.2V186.5z"/>
	<path fill="#DD3D2A" d="M204.9,20.2c-1.5,0-2.8-1.3-2.8-2.8V9.8h-12.6v7.6c0,1.6-1.3,2.8-2.8,2.8c-1.5,0-2.8-1.3-2.8-2.8V6.9
		c0-1.6,1.3-2.8,2.8-2.8h18.2c1.5,0,2.8,1.3,2.8,2.8v10.4C207.7,18.9,206.5,20.2,204.9,20.2z"/>
	<g>
		<path fill="#DD3D2A" d="M227.9,28.6h-11.1c-1.5,0-2.8-1.3-2.8-2.8c0-1.6,1.3-2.8,2.8-2.8h11.1c1.5,0,2.8,1.3,2.8,2.8
			C230.7,27.3,229.4,28.6,227.9,28.6z"/>
		<path fill="#DD3D2A" d="M174.9,28.6h-11.1c-1.5,0-2.8-1.3-2.8-2.8c0-1.6,1.3-2.8,2.8-2.8h11.1c1.5,0,2.8,1.3,2.8,2.8
			C177.7,27.3,176.4,28.6,174.9,28.6z"/>
	</g>
	<rect x="238.1" y="53.9" fill="#B4B4B4" width="41.5" height="7"/>
	<rect x="175.1" y="52.3" fill="#B4B4B4" width="41.5" height="8.5"/>
	<rect x="175.1" y="52.3" fill="#989898" width="11.2" height="8.5"/>
	<rect x="238.1" y="53.9" fill="#989898" width="11.2" height="7"/>
	<path fill="#E6E6E5" d="M291,63v113.5c0,2.4-1.9,4.4-4.3,4.4h-4.1h-11.2h-88.2h-11.2H168c-2.4,0-4.3-2-4.3-4.4V63
		c0-2.4,1.9-4.4,4.3-4.4h7.1h41.5h21.5h41.5h7.1C289.1,58.6,291,60.6,291,63z"/>
	<polygon fill="#B4B4B4" points="261.6,92.3 271.4,92.3 271.4,158.7 183.3,158.7 183.3,92.3 231.3,92.3 	"/>
	<path fill="#B4B4B4" d="M231.3,83.7h-47.5c-4,0-7.2-3.3-7.2-7.4c0-2,0.8-3.8,2.1-5.2c1.4-1.4,3.2-2.2,5.1-2.2h2.1
		c1.5,0,2.8,1.3,2.8,2.8s-1.3,2.8-2.8,2.8h-2.1c-0.4,0-0.8,0.2-1.2,0.5c-0.3,0.3-0.5,0.7-0.5,1.2c0,0.9,0.7,1.7,1.6,1.7h47.5
		c1.5,0,2.8,1.3,2.8,2.8S232.8,83.7,231.3,83.7z"/>
	<path fill="#B4B4B4" d="M270.8,83.7h-9.2c-1.5,0-2.8-1.3-2.8-2.8s1.3-2.8,2.8-2.8h9.2c0.4,0,0.8-0.2,1.2-0.5
		c0.3-0.3,0.5-0.7,0.5-1.2c0-0.9-0.7-1.7-1.6-1.7h-2.1c-1.5,0-2.8-1.3-2.8-2.8s1.3-2.8,2.8-2.8h2.1c4,0,7.2,3.3,7.2,7.4
		c0,2-0.8,3.8-2.1,5.2C274.6,82.9,272.8,83.7,270.8,83.7z"/>
	<rect x="196.3" y="105.7" fill="#989898" width="35" height="5.7"/>
	<rect x="196.3" y="122.6" fill="#989898" width="62" height="5.7"/>
	<rect x="196.3" y="139.6" fill="#989898" width="62" height="5.7"/>
	<rect x="231.3" y="75.7" fill="#F7B238" width="30.3" height="40.3"/>
	<rect x="231.3" y="75.7" fill="#E6A12F" width="30.3" height="5.5"/>
	<path fill="#EF4326" d="M220.7,14.5v34.8c0,2.5-2,4.6-4.5,4.6h-40.7c-2.5,0-4.5-2-4.5-4.6V14.5H220.7z"/>
	<path fill="#DD3D2A" d="M184.1,14.5v39.4h-8.6c-2.5,0-4.5-2-4.5-4.6V14.5H184.1z"/>
</g>
</svg>
